<svg width="286" height="100" viewBox="0 0 286 100" fill="none" xmlns="http://www.w3.org/2000/svg">
<g id="Frame 1" clip-path="url(#clip0_1_2)">
<g id="CEZARY SZAL" filter="url(#filter0_d_1_2)">
<path d="M22.6091 53.4L25.0992 53.1781L24.8121 49.9559L21.7664 51.0463L22.6091 53.4ZM23.3291 61.48L24.2627 63.7991L25.9839 63.1062L25.8192 61.2581L23.3291 61.48ZM8.64906 61.8L7.83825 64.1649L7.85343 64.1701L7.86868 64.1751L8.64906 61.8ZM4.20906 58.92L6.11 57.2963L6.11 57.2963L4.20906 58.92ZM1.88906 54.04L-0.554473 54.5683L-0.551072 54.5841L-0.547469 54.5997L1.88906 54.04ZM1.84906 40.2L-0.594473 39.6717L-0.597188 39.6842L-0.599775 39.6968L1.84906 40.2ZM4.08906 35.28L6.02572 36.8609L6.03352 36.8514L6.04123 36.8417L4.08906 35.28ZM8.40906 32.28L7.55743 29.9295L7.5464 29.9336L8.40906 32.28ZM17.4091 31.4L17.1427 33.8858L17.1898 33.8908L17.2371 33.8941L17.4091 31.4ZM19.6491 31.64L19.2827 34.113L19.2955 34.1149L19.6491 31.64ZM21.7291 32.04L21.1227 34.4654L21.1804 34.4798L21.2388 34.4915L21.7291 32.04ZM23.3291 32.52L25.7825 33L26.1579 31.0813L24.3863 30.2545L23.3291 32.52ZM21.8891 39.88L21.3694 42.3254L23.8547 42.8535L24.3425 40.36L21.8891 39.88ZM11.5691 54.16H9.06906V56.1749L11.038 56.6029L11.5691 54.16ZM13.4091 54.48L13.0857 56.959L13.1434 56.9665L13.2014 56.9714L13.4091 54.48ZM20.1189 53.6219L20.8389 61.7019L25.8192 61.2581L25.0992 53.1781L20.1189 53.6219ZM22.3954 59.1609C20.725 59.8334 18.5308 60.22 15.7291 60.22V65.22C18.954 65.22 21.8264 64.78 24.2627 63.7991L22.3954 59.1609ZM15.7291 60.22C13.032 60.22 10.9583 59.9273 9.42945 59.4249L7.86868 64.1751C10.0731 64.8994 12.7194 65.22 15.7291 65.22V60.22ZM9.45987 59.4351C7.94271 58.915 6.86611 58.1815 6.11 57.2963L2.30813 60.5437C3.73869 62.2185 5.62208 63.405 7.83825 64.1649L9.45987 59.4351ZM6.11 57.2963C5.32632 56.3788 4.70688 55.1399 4.32559 53.4803L-0.547469 54.5997C-0.0220833 56.8867 0.905137 58.9012 2.30813 60.5437L6.11 57.2963ZM4.3326 53.5117C3.95353 51.7585 3.74906 49.6107 3.74906 47.04H-1.25094C-1.25094 49.856 -1.02874 52.3749 -0.554473 54.5683L4.3326 53.5117ZM3.74906 47.04C3.74906 44.5462 3.94061 42.442 4.2979 40.7032L-0.599775 39.6968C-1.04249 41.8514 -1.25094 44.3071 -1.25094 47.04H3.74906ZM4.2926 40.7283C4.65211 39.0656 5.25337 37.8071 6.02572 36.8609L2.15241 33.6991C0.791422 35.3663 -0.100653 37.3878 -0.594473 39.6717L4.2926 40.7283ZM6.04123 36.8417C6.78706 35.9095 7.82876 35.1569 9.27173 34.6264L7.5464 29.9336C5.3627 30.7364 3.5244 31.9839 2.13689 33.7183L6.04123 36.8417ZM9.26068 34.6305C10.7375 34.0954 12.7449 33.78 15.3691 33.78V28.78C12.3932 28.78 9.76066 29.1313 7.55744 29.9295L9.26068 34.6305ZM15.3691 33.78C15.8764 33.78 16.4657 33.8132 17.1427 33.8858L17.6754 28.9142C16.8591 28.8268 16.0884 28.78 15.3691 28.78V33.78ZM17.2371 33.8941C17.9495 33.9432 18.6312 34.0165 19.2827 34.113L20.0154 29.167C19.2269 29.0502 18.4153 28.9635 17.5811 28.9059L17.2371 33.8941ZM19.2955 34.1149C19.9689 34.2111 20.5769 34.3289 21.1227 34.4654L22.3354 29.6146C21.6013 29.4311 20.8226 29.2823 20.0026 29.1651L19.2955 34.1149ZM21.2388 34.4915C21.8028 34.6043 22.1222 34.7156 22.2719 34.7855L24.3863 30.2545C23.7359 29.951 22.9887 29.7424 22.2194 29.5885L21.2388 34.4915ZM20.8756 32.04L19.4356 39.4L24.3425 40.36L25.7825 33L20.8756 32.04ZM22.4087 37.4346C20.1521 36.9551 18.0664 36.7 16.1691 36.7V41.7C17.6317 41.7 19.3593 41.8983 21.3694 42.3254L22.4087 37.4346ZM16.1691 36.7C14.435 36.7 12.7159 36.8364 11.4872 37.4262L13.6509 41.9338C13.6445 41.9369 13.8164 41.8625 14.2995 41.7981C14.7544 41.7374 15.37 41.7 16.1691 41.7V36.7ZM11.4872 37.4262C9.68358 38.2919 9.06906 40.0198 9.06906 41.6H14.0691C14.0691 41.3946 14.1065 41.4201 14.0363 41.5548C13.9993 41.626 13.9421 41.7075 13.8629 41.7835C13.7842 41.859 13.7072 41.9068 13.6509 41.9338L11.4872 37.4262ZM9.06906 41.6V54.16H14.0691V41.6H9.06906ZM11.038 56.6029C11.719 56.751 12.4016 56.8698 13.0857 56.959L13.7324 52.001C13.1898 51.9302 12.6458 51.8357 12.1001 51.7171L11.038 56.6029ZM13.2014 56.9714C13.9131 57.0307 14.6357 57.06 15.3691 57.06V52.06C14.7691 52.06 14.1851 52.036 13.6167 51.9886L13.2014 56.9714ZM15.3691 57.06C18.2772 57.06 20.9814 56.6381 23.4517 55.7537L21.7664 51.0463C19.9167 51.7085 17.7943 52.06 15.3691 52.06V57.06ZM45.8734 43.72H48.3734V41.22H45.8734V43.72ZM45.8734 50.68V53.18H48.3734V50.68H45.8734ZM36.2734 50.68V48.18H33.7734V50.68H36.2734ZM36.2734 54.32H33.7734V56.82H36.2734V54.32ZM48.0334 54.32H50.5334V51.82H48.0334V54.32ZM48.0334 62V64.5H50.5334V62H48.0334ZM26.6734 62H24.1734V64.5H26.6734V62ZM26.6734 32V29.5H24.1734V32H26.6734ZM47.7934 32L50.2635 32.3859L50.7144 29.5H47.7934V32ZM46.5934 39.68V42.18H48.7331L49.0635 40.0659L46.5934 39.68ZM36.2734 39.68V37.18H33.7734V39.68H36.2734ZM36.2734 43.72H33.7734V46.22H36.2734V43.72ZM43.3734 43.72V50.68H48.3734V43.72H43.3734ZM45.8734 48.18H36.2734V53.18H45.8734V48.18ZM33.7734 50.68V54.32H38.7734V50.68H33.7734ZM36.2734 56.82H48.0334V51.82H36.2734V56.82ZM45.5334 54.32V62H50.5334V54.32H45.5334ZM48.0334 59.5H26.6734V64.5H48.0334V59.5ZM29.1734 62V32H24.1734V62H29.1734ZM26.6734 34.5H47.7934V29.5H26.6734V34.5ZM45.3234 31.6141L44.1234 39.2941L49.0635 40.0659L50.2635 32.3859L45.3234 31.6141ZM46.5934 37.18H36.2734V42.18H46.5934V37.18ZM33.7734 39.68V43.72H38.7734V39.68H33.7734ZM36.2734 46.22H45.8734V41.22H36.2734V46.22ZM76.7831 54.32H79.2831V51.82H76.7831V54.32ZM76.7831 62V64.5H79.2831V62H76.7831ZM50.9031 62H48.4031V64.5H50.9031V62ZM50.9031 56L48.9181 54.4803L48.4031 55.1529V56H50.9031ZM63.1831 39.96L65.1682 41.4797L66.0569 40.3189L65.481 38.9752L63.1831 39.96ZM63.0631 39.68L65.361 38.6952L64.7116 37.18H63.0631V39.68ZM52.9831 39.68L50.4994 39.9646L50.7532 42.18H52.9831V39.68ZM52.1031 32V29.5H49.3003L49.6194 32.2846L52.1031 32ZM76.5831 32H79.0831V29.5H76.5831V32ZM76.5831 38L78.5753 39.5103L79.0831 38.8405V38H76.5831ZM64.4231 54.04L62.4309 52.5297L61.4329 53.8461L62.2525 55.2803L64.4231 54.04ZM64.5831 54.32L62.4125 55.5603L63.1323 56.82H64.5831V54.32ZM74.2831 54.32V62H79.2831V54.32H74.2831ZM76.7831 59.5H50.9031V64.5H76.7831V59.5ZM53.4031 62V56H48.4031V62H53.4031ZM52.8882 57.5197L65.1682 41.4797L61.1981 38.4403L48.9181 54.4803L52.8882 57.5197ZM65.481 38.9752L65.361 38.6952L60.7653 40.6648L60.8853 40.9448L65.481 38.9752ZM63.0631 37.18H52.9831V42.18H63.0631V37.18ZM55.4669 39.3954L54.5869 31.7154L49.6194 32.2846L50.4994 39.9646L55.4669 39.3954ZM52.1031 34.5H76.5831V29.5H52.1031V34.5ZM74.0831 32V38H79.0831V32H74.0831ZM74.5909 36.4897L62.4309 52.5297L66.4153 55.5503L78.5753 39.5103L74.5909 36.4897ZM62.2525 55.2803L62.4125 55.5603L66.7537 53.0797L66.5937 52.7997L62.2525 55.2803ZM64.5831 56.82H76.7831V51.82H64.5831V56.82ZM88.6244 57.24V54.74H86.6281L86.1863 56.6868L88.6244 57.24ZM87.5444 62V64.5H89.5407L89.9824 62.5532L87.5444 62ZM77.4244 62L75.004 61.3739L74.1954 64.5H77.4244V62ZM85.1844 32V29.5H83.2488L82.764 31.3739L85.1844 32ZM100.024 32L102.445 31.3739L101.96 29.5H100.024V32ZM107.784 62V64.5H111.013L110.205 61.3739L107.784 62ZM97.6644 62L95.2308 62.5726L95.6843 64.5H97.6644V62ZM96.5444 57.24L98.9779 56.6674L98.5244 54.74H96.5444V57.24ZM92.8644 41.2L95.3015 40.6429L94.8574 38.7H92.8644V41.2ZM92.3444 41.2V38.7H90.3606L89.9098 40.6319L92.3444 41.2ZM90.3844 49.6L87.9498 49.0319L87.2339 52.1H90.3844V49.6ZM94.7844 49.6V52.1H97.9203L97.2215 49.0429L94.7844 49.6ZM86.1863 56.6868L85.1063 61.4468L89.9824 62.5532L91.0624 57.7932L86.1863 56.6868ZM87.5444 59.5H77.4244V64.5H87.5444V59.5ZM79.8447 62.6261L87.6047 32.6261L82.764 31.3739L75.004 61.3739L79.8447 62.6261ZM85.1844 34.5H100.024V29.5H85.1844V34.5ZM97.604 32.6261L105.364 62.6261L110.205 61.3739L102.445 31.3739L97.604 32.6261ZM107.784 59.5H97.6644V64.5H107.784V59.5ZM100.098 61.4274L98.9779 56.6674L94.1108 57.8126L95.2308 62.5726L100.098 61.4274ZM96.5444 54.74H88.6244V59.74H96.5444V54.74ZM92.8644 38.7H92.3444V43.7H92.8644V38.7ZM89.9098 40.6319L87.9498 49.0319L92.819 50.1681L94.779 41.7681L89.9098 40.6319ZM90.3844 52.1H94.7844V47.1H90.3844V52.1ZM97.2215 49.0429L95.3015 40.6429L90.4272 41.7571L92.3472 50.1571L97.2215 49.0429ZM130.602 52L129.468 49.7719L127.221 50.9158L128.384 53.1534L130.602 52ZM135.802 62V64.5H139.92L138.02 60.8466L135.802 62ZM125.242 62L122.953 63.0058L123.61 64.5H125.242V62ZM121.322 53.08L123.611 52.0742L122.954 50.58H121.322V53.08ZM119.242 53.08V50.58H116.742V53.08H119.242ZM119.242 62V64.5H121.742V62H119.242ZM109.642 62H107.142V64.5H109.642V62ZM109.642 32V29.5H107.142V32H109.642ZM119.242 39.68V37.18H116.742V39.68H119.242ZM119.242 45.68H116.742V48.18H119.242V45.68ZM123.962 45.32L122.936 43.0402L122.914 43.0502L122.892 43.0607L123.962 45.32ZM123.962 40.04L122.892 42.2993L122.914 42.3098L122.936 42.3198L123.962 40.04ZM128.384 53.1534L133.584 63.1534L138.02 60.8466L132.82 50.8466L128.384 53.1534ZM135.802 59.5H125.242V64.5H135.802V59.5ZM127.531 60.9942L123.611 52.0742L119.033 54.0858L122.953 63.0058L127.531 60.9942ZM121.322 50.58H119.242V55.58H121.322V50.58ZM116.742 53.08V62H121.742V53.08H116.742ZM119.242 59.5H109.642V64.5H119.242V59.5ZM112.142 62V32H107.142V62H112.142ZM109.642 34.5H124.762V29.5H109.642V34.5ZM124.762 34.5C127.805 34.5 129.63 35.272 130.718 36.3807C131.814 37.4983 132.582 39.3868 132.582 42.52H137.582C137.582 38.6399 136.63 35.2683 134.287 32.8793C131.935 30.4814 128.6 29.5 124.762 29.5V34.5ZM132.582 42.52C132.582 46.8406 131.273 48.8536 129.468 49.7719L131.736 54.2281C135.905 52.1064 137.582 47.7994 137.582 42.52H132.582ZM121.442 37.18H119.242V42.18H121.442V37.18ZM116.742 39.68V45.68H121.742V39.68H116.742ZM119.242 48.18H121.442V43.18H119.242V48.18ZM121.442 48.18C122.667 48.18 123.99 48.0732 125.032 47.5793L122.892 43.0607C122.95 43.0332 122.884 43.0744 122.599 43.1151C122.33 43.1534 121.952 43.18 121.442 43.18V48.18ZM124.988 47.5998C126.812 46.779 127.262 44.9972 127.262 43.68H122.262C122.262 43.8703 122.229 43.811 122.315 43.6339C122.363 43.5369 122.44 43.4168 122.559 43.2999C122.679 43.1821 122.811 43.0964 122.936 43.0402L124.988 47.5998ZM127.262 43.68V41.68H122.262V43.68H127.262ZM127.262 41.68C127.262 40.3628 126.812 38.581 124.988 37.7602L122.936 42.3198C122.811 42.2636 122.679 42.1779 122.559 42.0601C122.44 41.9432 122.363 41.8231 122.315 41.7261C122.229 41.549 122.262 41.4897 122.262 41.68H127.262ZM125.032 37.7807C123.99 37.2868 122.667 37.18 121.442 37.18V42.18C121.952 42.18 122.33 42.2066 122.599 42.2449C122.884 42.2856 122.95 42.3268 122.892 42.2993L125.032 37.7807ZM136.773 32V29.5H133.096L134.449 32.9197L136.773 32ZM147.373 32L149.799 31.3937L149.325 29.5H147.373V32ZM150.013 42.56L147.588 43.1663L148.061 45.06H150.013V42.56ZM150.373 42.56V45.06H152.318L152.797 43.175L150.373 42.56ZM153.053 32V29.5H151.109L150.63 31.385L153.053 32ZM163.653 32L165.978 32.9197L167.331 29.5H163.653V32ZM155.013 53.84L152.689 52.9203L152.513 53.3635V53.84H155.013ZM155.013 62V64.5H157.513V62H155.013ZM145.413 62H142.913V64.5H145.413V62ZM145.413 53.84H147.913V53.3635L147.738 52.9203L145.413 53.84ZM136.773 34.5H147.373V29.5H136.773V34.5ZM144.948 32.6063L147.588 43.1663L152.439 41.9537L149.799 31.3937L144.948 32.6063ZM150.013 45.06H150.373V40.06H150.013V45.06ZM152.797 43.175L155.477 32.615L150.63 31.385L147.95 41.945L152.797 43.175ZM153.053 34.5H163.653V29.5H153.053V34.5ZM161.329 31.0803L152.689 52.9203L157.338 54.7597L165.978 32.9197L161.329 31.0803ZM152.513 53.84V62H157.513V53.84H152.513ZM155.013 59.5H145.413V64.5H155.013V59.5ZM147.913 62V53.84H142.913V62H147.913ZM147.738 52.9203L139.098 31.0803L134.449 32.9197L143.089 54.7597L147.738 52.9203ZM176.841 61.48L174.377 61.0569L173.974 63.4002L176.294 63.9196L176.841 61.48ZM178.201 53.56L178.797 51.1321L176.191 50.4925L175.737 53.1369L178.201 53.56ZM189.321 54.6L189.394 57.0989L189.429 57.0979L189.463 57.0959L189.321 54.6ZM191.801 54.36L192.167 56.833L194.301 56.5169V54.36H191.801ZM191.801 51.96H194.301V49.6597L192.008 49.4686L191.801 51.96ZM187.481 51.6L187.242 54.0886L187.257 54.0901L187.273 54.0914L187.481 51.6ZM182.601 50.64L181.781 53.0019L181.781 53.0019L182.601 50.64ZM179.441 48.8L177.643 50.5376L177.673 50.568L177.703 50.5975L179.441 48.8ZM177.761 45.96L175.357 46.6468L175.367 46.6814L175.378 46.7156L177.761 45.96ZM177.921 36.92L180.306 37.6684L180.31 37.6552L177.921 36.92ZM179.961 33.6L181.618 35.4715L181.633 35.4584L181.648 35.4451L179.961 33.6ZM183.561 31.8L182.995 29.3647L182.986 29.367L183.561 31.8ZM200.521 32.48L202.991 32.8659L203.349 30.5711L201.087 30.045L200.521 32.48ZM199.321 40.16L198.924 42.6283L201.403 43.0268L201.791 40.5459L199.321 40.16ZM187.601 39.68L187.284 37.2001L185.101 37.4789V39.68H187.601ZM187.601 42.04H185.101V44.3182L187.369 44.5293L187.601 42.04ZM191.041 42.36L191.293 39.8727L191.282 39.8717L191.272 39.8707L191.041 42.36ZM196.321 43.44L195.477 45.7933L195.497 45.8004L195.517 45.8072L196.321 43.44ZM199.721 45.36L198.011 47.1838L198.025 47.197L198.039 47.2098L199.721 45.36ZM201.561 48.2L199.178 48.9556L199.186 48.9818L199.195 49.0079L201.561 48.2ZM201.321 57.08L198.987 56.1826L198.987 56.1826L201.321 57.08ZM199.401 60.24L201.129 62.0466L201.136 62.0396L199.401 60.24ZM197.121 61.64L197.953 63.9975L197.983 63.9867L198.013 63.9751L197.121 61.64ZM194.241 62.36L194.631 64.8294L194.631 64.8294L194.241 62.36ZM191.161 62.64L191.097 60.1408L191.063 60.1417L191.029 60.1435L191.161 62.64ZM182.401 62.4L182.677 59.9153L182.677 59.9153L182.401 62.4ZM179.305 61.9031L180.665 53.9831L175.737 53.1369L174.377 61.0569L179.305 61.9031ZM177.605 55.9879C180.683 56.7435 183.541 57.14 186.161 57.14V52.14C184.034 52.14 181.585 51.8165 178.797 51.1321L177.605 55.9879ZM186.161 57.14C187.378 57.14 188.457 57.1265 189.394 57.0989L189.247 52.1011C188.371 52.1268 187.343 52.14 186.161 52.14V57.14ZM189.463 57.0959C190.452 57.0394 191.355 56.9532 192.167 56.833L191.434 51.887C190.806 51.9801 190.056 52.0539 189.178 52.1041L189.463 57.0959ZM194.301 54.36V51.96H189.301V54.36H194.301ZM192.008 49.4686L187.688 49.1086L187.273 54.0914L191.593 54.4514L192.008 49.4686ZM187.719 49.1114C185.896 48.9366 184.479 48.6456 183.42 48.2781L181.781 53.0019C183.335 53.5411 185.172 53.8901 187.242 54.0886L187.719 49.1114ZM183.42 48.2781C182.376 47.9157 181.661 47.4696 181.178 47.0025L177.703 50.5975C178.82 51.6771 180.212 52.4576 181.781 53.0019L183.42 48.2781ZM181.238 47.0624C180.742 46.5488 180.377 45.9413 180.144 45.2044L175.378 46.7156C175.837 48.1654 176.593 49.4512 177.643 50.5376L181.238 47.0624ZM180.164 45.2732C179.923 44.4291 179.781 43.3629 179.781 42.04H174.781C174.781 43.7038 174.958 45.2509 175.357 46.6468L180.164 45.2732ZM179.781 42.04C179.781 40.1389 179.981 38.7053 180.306 37.6683L175.535 36.1716C175.007 37.8547 174.781 39.8345 174.781 42.04H179.781ZM180.31 37.6552C180.624 36.6344 181.081 35.9469 181.618 35.4715L178.303 31.7285C176.973 32.9065 176.07 34.4323 175.531 36.1848L180.31 37.6552ZM181.648 35.4451C182.211 34.9298 183.004 34.5004 184.136 34.233L182.986 29.367C181.184 29.7929 179.577 30.5636 178.274 31.7549L181.648 35.4451ZM184.126 34.2352C185.378 33.9447 186.99 33.78 189.001 33.78V28.78C186.745 28.78 184.73 28.962 182.995 29.3648L184.126 34.2352ZM189.001 33.78C193.087 33.78 196.733 34.1658 199.954 34.915L201.087 30.045C197.429 29.1942 193.395 28.78 189.001 28.78V33.78ZM198.051 32.0941L196.851 39.7741L201.791 40.5459L202.991 32.8659L198.051 32.0941ZM199.717 37.6917C196.676 37.2029 194.14 36.94 192.161 36.94V41.94C193.755 41.94 195.992 42.1571 198.924 42.6283L199.717 37.6917ZM192.161 36.94C190.308 36.94 188.675 37.0225 187.284 37.2001L187.917 42.1599C189.033 42.0175 190.44 41.94 192.161 41.94V36.94ZM185.101 39.68V42.04H190.101V39.68H185.101ZM187.369 44.5293L190.809 44.8493L191.272 39.8707L187.832 39.5507L187.369 44.5293ZM190.789 44.8473C192.769 45.0478 194.315 45.3768 195.477 45.7933L197.164 41.0867C195.5 40.4899 193.526 40.0989 191.293 39.8727L190.789 44.8473ZM195.517 45.8072C196.683 46.2032 197.479 46.6848 198.011 47.1838L201.43 43.5362C200.256 42.4352 198.785 41.6368 197.125 41.0728L195.517 45.8072ZM198.039 47.2098C198.605 47.7247 198.969 48.2984 199.178 48.9556L203.944 47.4444C203.459 45.915 202.596 44.5953 201.402 43.5101L198.039 47.2098ZM199.195 49.0079C199.462 49.7905 199.621 50.7623 199.621 51.96H204.621C204.621 50.331 204.406 48.7962 203.926 47.3921L199.195 49.0079ZM199.621 51.96C199.621 53.7842 199.378 55.1658 198.987 56.1826L203.654 57.9774C204.33 56.2209 204.621 54.1891 204.621 51.96H199.621ZM198.987 56.1826C198.532 57.3651 198.061 58.0589 197.665 58.4404L201.136 62.0396C202.234 60.9811 203.042 59.5683 203.654 57.9774L198.987 56.1826ZM197.673 58.4334C197.332 58.7594 196.868 59.0601 196.228 59.3049L198.013 63.9751C199.187 63.5266 200.243 62.894 201.129 62.0466L197.673 58.4334ZM196.289 59.2825C195.535 59.5486 194.724 59.7528 193.851 59.8906L194.631 64.8294C195.784 64.6472 196.893 64.3714 197.953 63.9975L196.289 59.2825ZM193.851 59.8906C192.947 60.0333 192.029 60.1169 191.097 60.1408L191.225 65.1392C192.372 65.1098 193.508 65.0067 194.631 64.8294L193.851 59.8906ZM191.029 60.1435C190.05 60.195 189.175 60.22 188.401 60.22V65.22C189.28 65.22 190.244 65.1917 191.292 65.1365L191.029 60.1435ZM188.401 60.22C186.406 60.22 184.498 60.1177 182.677 59.9153L182.125 64.8847C184.143 65.109 186.235 65.22 188.401 65.22V60.22ZM182.677 59.9153C180.843 59.7115 179.08 59.4194 177.387 59.0404L176.294 63.9196C178.175 64.3406 180.119 64.6618 182.125 64.8847L182.677 59.9153ZM230.416 54.32H232.916V51.82H230.416V54.32ZM230.416 62V64.5H232.916V62H230.416ZM204.536 62H202.036V64.5H204.536V62ZM204.536 56L202.551 54.4803L202.036 55.1529V56H204.536ZM216.816 39.96L218.801 41.4797L219.69 40.3189L219.114 38.9752L216.816 39.96ZM216.696 39.68L218.994 38.6952L218.344 37.18H216.696V39.68ZM206.616 39.68L204.132 39.9646L204.386 42.18H206.616V39.68ZM205.736 32V29.5H202.933L203.252 32.2846L205.736 32ZM230.216 32H232.716V29.5H230.216V32ZM230.216 38L232.208 39.5103L232.716 38.8405V38H230.216ZM218.056 54.04L216.064 52.5297L215.066 53.8461L215.885 55.2803L218.056 54.04ZM218.216 54.32L216.045 55.5603L216.765 56.82H218.216V54.32ZM227.916 54.32V62H232.916V54.32H227.916ZM230.416 59.5H204.536V64.5H230.416V59.5ZM207.036 62V56H202.036V62H207.036ZM206.521 57.5197L218.801 41.4797L214.831 38.4403L202.551 54.4803L206.521 57.5197ZM219.114 38.9752L218.994 38.6952L214.398 40.6648L214.518 40.9448L219.114 38.9752ZM216.696 37.18H206.616V42.18H216.696V37.18ZM209.1 39.3954L208.22 31.7154L203.252 32.2846L204.132 39.9646L209.1 39.3954ZM205.736 34.5H230.216V29.5H205.736V34.5ZM227.716 32V38H232.716V32H227.716ZM228.224 36.4897L216.064 52.5297L220.048 55.5503L232.208 39.5103L228.224 36.4897ZM215.885 55.2803L216.045 55.5603L220.387 53.0797L220.227 52.7997L215.885 55.2803ZM218.216 56.82H230.416V51.82H218.216V56.82ZM242.257 57.24V54.74H240.261L239.819 56.6868L242.257 57.24ZM241.177 62V64.5H243.174L243.615 62.5532L241.177 62ZM231.057 62L228.637 61.3739L227.828 64.5H231.057V62ZM238.817 32V29.5H236.882L236.397 31.3739L238.817 32ZM253.657 32L256.078 31.3739L255.593 29.5H253.657V32ZM261.417 62V64.5H264.646L263.838 61.3739L261.417 62ZM251.297 62L248.864 62.5726L249.317 64.5H251.297V62ZM250.177 57.24L252.611 56.6674L252.157 54.74H250.177V57.24ZM246.497 41.2L248.934 40.6429L248.49 38.7H246.497V41.2ZM245.977 41.2V38.7H243.993L243.543 40.6319L245.977 41.2ZM244.017 49.6L241.583 49.0319L240.867 52.1H244.017V49.6ZM248.417 49.6V52.1H251.553L250.854 49.0429L248.417 49.6ZM239.819 56.6868L238.739 61.4468L243.615 62.5532L244.695 57.7932L239.819 56.6868ZM241.177 59.5H231.057V64.5H241.177V59.5ZM233.478 62.6261L241.238 32.6261L236.397 31.3739L228.637 61.3739L233.478 62.6261ZM238.817 34.5H253.657V29.5H238.817V34.5ZM251.237 32.6261L258.997 62.6261L263.838 61.3739L256.078 31.3739L251.237 32.6261ZM261.417 59.5H251.297V64.5H261.417V59.5ZM253.731 61.4274L252.611 56.6674L247.744 57.8126L248.864 62.5726L253.731 61.4274ZM250.177 54.74H242.257V59.74H250.177V54.74ZM246.497 38.7H245.977V43.7H246.497V38.7ZM243.543 40.6319L241.583 49.0319L246.452 50.1681L248.412 41.7681L243.543 40.6319ZM244.017 52.1H248.417V47.1H244.017V52.1ZM250.854 49.0429L248.934 40.6429L244.06 41.7571L245.98 50.1571L250.854 49.0429ZM282.475 54.32H284.975V51.82H282.475V54.32ZM282.475 62V64.5H284.975V62H282.475ZM263.275 62H260.775V64.5H263.275V62ZM263.275 32V29.5H260.775V32H263.275ZM272.875 32H275.375V29.5H272.875V32ZM272.875 54.32H270.375V56.82H272.875V54.32ZM279.975 54.32V62H284.975V54.32H279.975ZM282.475 59.5H263.275V64.5H282.475V59.5ZM265.775 62V32H260.775V62H265.775ZM263.275 34.5H272.875V29.5H263.275V34.5ZM270.375 32V54.32H275.375V32H270.375ZM272.875 56.82H282.475V51.82H272.875V56.82Z" fill="black"/>
</g>
</g>
<defs>
<filter id="filter0_d_1_2" x="-2.75095" y="31.28" width="289.226" height="39.44" filterUnits="userSpaceOnUse" color-interpolation-filters="sRGB">
<feFlood flood-opacity="0" result="BackgroundImageFix"/>
<feColorMatrix in="SourceAlpha" type="matrix" values="0 0 0 0 0 0 0 0 0 0 0 0 0 0 0 0 0 0 127 0" result="hardAlpha"/>
<feOffset dy="4"/>
<feGaussianBlur stdDeviation="2"/>
<feComposite in2="hardAlpha" operator="out"/>
<feColorMatrix type="matrix" values="0 0 0 0 0 0 0 0 0 0 0 0 0 0 0 0 0 0 0.25 0"/>
<feBlend mode="normal" in2="BackgroundImageFix" result="effect1_dropShadow_1_2"/>
<feBlend mode="normal" in="SourceGraphic" in2="effect1_dropShadow_1_2" result="shape"/>
</filter>
<clipPath id="clip0_1_2">
<rect width="286" height="100" fill="white"/>
</clipPath>
</defs>
</svg>
