<?xml version="1.0" encoding="utf-8"?>
<?xml-stylesheet type="text/css" href="../css/styles.css"?>
<!-- Generator: Adobe Illustrator 27.5.0, SVG Export Plug-In . SVG Version: 6.00 Build 0)  -->
<svg version="1.1" xmlns="http://www.w3.org/2000/svg" xmlns:xlink="http://www.w3.org/1999/xlink" x="0px" y="0px"
	 viewBox="0 0 750 500" style="enable-background:new 0 0 750 500;" xml:space="preserve">
<g id="BACKGROUND">
	
		<rect x="125" y="-125" transform="matrix(-1.836970e-16 1 -1 -1.836970e-16 625 -125)" style="fill:#FFFFFF;" width="500" height="750"/>
</g>
<g id="OBJECTS">
	<g>
		<defs>
			<rect id="SVGID_1_" x="125" y="-125" transform="matrix(-1.836970e-16 1 -1 -1.836970e-16 625 -125)" width="500" height="750"/>
		</defs>
		<clipPath id="SVGID_00000020370403926597526980000012489601620429125566_">
			<use xlink:href="#SVGID_1_"  style="overflow:visible;"/>
		</clipPath>
		
			<linearGradient id="SVGID_00000042008782739136832220000005994004817706149562_" gradientUnits="userSpaceOnUse" x1="410.6426" y1="30.4868" x2="410.6426" y2="47.5807">
			<stop  offset="0" style="stop-color:#FFFFE9"/>
			<stop  offset="1" style="stop-color:#F5F5F5"/>
		</linearGradient>
		
			<path style="clip-path:url(#SVGID_00000020370403926597526980000012489601620429125566_);fill:url(#SVGID_00000042008782739136832220000005994004817706149562_);" d="
			M332.335,56.332h156.616c0,0-8.632-34.272-32.68-14.939c0,0,0.984-32.514-29.597-32.514c-27.932,0-32.68,29.878-32.68,29.878
			s-8.632-24.605-28.364,3.515C365.631,42.271,346.516,5.363,332.335,56.332z"/>
		<g style="clip-path:url(#SVGID_00000020370403926597526980000012489601620429125566_);">
			
				<linearGradient id="SVGID_00000133514620419111045580000012965951272996504497_" gradientUnits="userSpaceOnUse" x1="345.3737" y1="116.5021" x2="335.2512" y2="60.4064">
				<stop  offset="0" style="stop-color:#8161C5"/>
				<stop  offset="0.4385" style="stop-color:#F38770"/>
				<stop  offset="1" style="stop-color:#EEC000"/>
			</linearGradient>
			<path style="fill:url(#SVGID_00000133514620419111045580000012965951272996504497_);" class="sun" d="M320.045,105.042h46.521
				c-6.331,5.201-14.433,8.317-23.261,8.317C334.478,113.359,326.376,110.243,320.045,105.042z"/>
			
				<linearGradient id="SVGID_00000092452405807596061330000006036138753134247046_" gradientUnits="userSpaceOnUse" x1="347.537" y1="116.1117" x2="337.4145" y2="60.0159">
				<stop  offset="0" style="stop-color:#8161C5"/>
				<stop  offset="0.4385" style="stop-color:#F38770"/>
				<stop  offset="1" style="stop-color:#EEC000"/>
			</linearGradient>
			<path style="fill:url(#SVGID_00000092452405807596061330000006036138753134247046_);" class="sun" d="M376.339,92.663
				c-1.805,3.72-4.218,7.086-7.111,9.975h-51.844c-2.893-2.889-5.306-6.255-7.111-9.975H376.339z"/>
			
				<linearGradient id="SVGID_00000121976546952376638210000013982620645250059158_" gradientUnits="userSpaceOnUse" x1="350.3329" y1="115.6072" x2="340.2103" y2="59.5112">
				<stop  offset="0" style="stop-color:#8161C5"/>
				<stop  offset="0.4385" style="stop-color:#F38770"/>
				<stop  offset="1" style="stop-color:#EEC000"/>
			</linearGradient>
			<path style="fill:url(#SVGID_00000121976546952376638210000013982620645250059158_);" class="sun" d="M380,76.665
				c0,3.707-0.548,7.284-1.573,10.654h-70.242c-1.025-3.37-1.573-6.947-1.573-10.654c0-20.266,16.428-36.694,36.694-36.694
				C363.572,39.971,380,56.399,380,76.665z"/>
		</g>
		<g style="clip-path:url(#SVGID_00000020370403926597526980000012489601620429125566_);">
			
				<linearGradient id="SVGID_00000035521528484400206470000014402909430575172488_" gradientUnits="userSpaceOnUse" x1="363.9714" y1="186.6615" x2="363.9714" y2="206.0584">
				<stop  offset="0" style="stop-color:#FFFFE9"/>
				<stop  offset="1" style="stop-color:#F5F5F5"/>
			</linearGradient>
			<path style="fill:url(#SVGID_00000035521528484400206470000014402909430575172488_);" d="M409.016,210.371h-90.09
				c0,0,4.966-13.833,18.798-6.03c0,0,1.773-16.67,17.025-13.123s18.798,12.059,18.798,12.059s4.966-9.931,16.316,1.419
				C389.863,204.696,400.859,189.799,409.016,210.371z"/>
			
				<linearGradient id="SVGID_00000115488926672168438000000007312803553625820857_" gradientUnits="userSpaceOnUse" x1="527.4582" y1="180.2642" x2="527.4582" y2="215.3128" gradientTransform="matrix(-1 0 0 1 1075.5184 0)">
				<stop  offset="0" style="stop-color:#FFFFE9"/>
				<stop  offset="1" style="stop-color:#F5F5F5"/>
			</linearGradient>
			<path style="fill:url(#SVGID_00000115488926672168438000000007312803553625820857_);" d="M466.668,223.105h162.784
				c0,0-8.972-24.994-33.967-10.895c0,0-3.205-30.122-30.762-23.713c-27.558,6.409-33.967,21.79-33.967,21.79
				s-8.972-17.945-29.481,2.564C501.276,212.851,481.408,185.934,466.668,223.105z"/>
			
				<linearGradient id="SVGID_00000117670748116985215770000008741672963630095805_" gradientUnits="userSpaceOnUse" x1="715.2298" y1="141.0809" x2="715.2298" y2="169.0967">
				<stop  offset="0" style="stop-color:#FFFFE9"/>
				<stop  offset="1" style="stop-color:#F5F5F5"/>
			</linearGradient>
			<path style="fill:url(#SVGID_00000117670748116985215770000008741672963630095805_);" d="M780.29,175.325H650.17
				c0,0,7.172-19.979,27.151-8.709c0,0,2.561-24.077,24.59-18.955c22.028,5.123,27.151,17.418,27.151,17.418
				s7.172-14.344,23.565,2.049C752.626,167.129,768.507,145.613,780.29,175.325z"/>
			
				<linearGradient id="SVGID_00000009547979373890113880000004273201528079097264_" gradientUnits="userSpaceOnUse" x1="22.3969" y1="102.3247" x2="22.3969" y2="130.3405">
				<stop  offset="0" style="stop-color:#FFFFE9"/>
				<stop  offset="1" style="stop-color:#F5F5F5"/>
			</linearGradient>
			<path style="fill:url(#SVGID_00000009547979373890113880000004273201528079097264_);" d="M87.457,136.569h-130.12
				c0,0,7.172-19.979,27.151-8.709c0,0,2.561-24.077,24.59-18.955c22.028,5.123,27.151,17.418,27.151,17.418
				s7.172-14.344,23.565,2.049C59.794,128.372,75.675,106.856,87.457,136.569z"/>
			
				<linearGradient id="SVGID_00000096769277939416804140000012080052764660634540_" gradientUnits="userSpaceOnUse" x1="625.0225" y1="58.1399" x2="625.0225" y2="87.5062">
				<stop  offset="0" style="stop-color:#FFFFE9"/>
				<stop  offset="1" style="stop-color:#F5F5F5"/>
			</linearGradient>
			<path style="fill:url(#SVGID_00000096769277939416804140000012080052764660634540_);" class="cloud-front" d="M520.331,94.278h209.383
				c0,0-32.716-18.321-52.782-9.161c0,0-1.309-16.14-18.321-10.905c0,0,1.745-44.494-21.811-41.004
				c-23.556,3.49-20.502,38.387-20.502,38.387s-25.301-30.099-38.823-16.576c-13.523,13.523-9.161,32.28-9.161,32.28
				S534.071,80.537,520.331,94.278z"/>
			
				<linearGradient id="SVGID_00000150074927217772366360000012966523789270663340_" gradientUnits="userSpaceOnUse" x1="294.9854" y1="82.9968" x2="294.9854" y2="124.3508">
				<stop  offset="0" style="stop-color:#FFFFE9"/>
				<stop  offset="1" style="stop-color:#F5F5F5"/>
			</linearGradient>
			<path style="fill:url(#SVGID_00000150074927217772366360000012966523789270663340_);" class="cloud-back" d="M210.469,122.38h169.032
				c0,0-26.411-14.79-42.61-7.395c0,0-1.056-13.03-14.79-8.804c0,0,1.409-35.919-17.608-33.102
				c-19.016,2.817-16.551,30.989-16.551,30.989s-20.425-24.298-31.341-13.382c-10.917,10.917-7.395,26.059-7.395,26.059
				S221.562,111.287,210.469,122.38z"/>
			
				<linearGradient id="SVGID_00000016038048184532604580000010415728670269889934_" gradientUnits="userSpaceOnUse" x1="114.924" y1="32.6346" x2="114.924" y2="52.0905">
				<stop  offset="0" style="stop-color:#FFFFE9"/>
				<stop  offset="1" style="stop-color:#F5F5F5"/>
			</linearGradient>
			<path style="fill:url(#SVGID_00000016038048184532604580000010415728670269889934_);" d="M211.635,52.958H18.213
				c0,0,46.174-73.624,103.846-15.952c0,0,14.111-12.884,27.609,7.362c0,0,13.498-26.995,31.904,0
				C181.572,44.368,203.352,44.675,211.635,52.958z"/>
			
				<linearGradient id="SVGID_00000137819335365054047830000002763259038074881436_" gradientUnits="userSpaceOnUse" x1="226.0647" y1="179.8112" x2="226.0647" y2="189.5391">
				<stop  offset="0" style="stop-color:#FFFFE9"/>
				<stop  offset="1" style="stop-color:#F5F5F5"/>
			</linearGradient>
			<path style="fill:url(#SVGID_00000137819335365054047830000002763259038074881436_);" d="M274.42,189.973h-96.711
				c0,0,23.087-36.812,51.923-7.976c0,0,7.056-6.442,13.805,3.681c0,0,6.749-13.498,15.952,0
				C259.389,185.678,270.279,185.831,274.42,189.973z"/>
		</g>
		<g style="clip-path:url(#SVGID_00000020370403926597526980000012489601620429125566_);">
			<g>
				
					<linearGradient id="SVGID_00000004544101286911693690000004869808187452683171_" gradientUnits="userSpaceOnUse" x1="54.5834" y1="406.3379" x2="6.0328" y2="182.7798">
					<stop  offset="0" style="stop-color:#8161C5"/>
					<stop  offset="0.4385" style="stop-color:#F38770"/>
					<stop  offset="1" style="stop-color:#EEC000"/>
				</linearGradient>
				
					<rect x="31.376" y="160.87" style="fill:url(#SVGID_00000004544101286911693690000004869808187452683171_);" width="5.939" height="304.558"/>
				
					<linearGradient id="SVGID_00000132054315342313242660000012264454103779089049_" gradientUnits="userSpaceOnUse" x1="138.1558" y1="387.1837" x2="89.6052" y2="163.6257">
					<stop  offset="0" style="stop-color:#8161C5"/>
					<stop  offset="0.4385" style="stop-color:#F38770"/>
					<stop  offset="1" style="stop-color:#EEC000"/>
				</linearGradient>
				
					<rect x="119.108" y="160.87" style="fill:url(#SVGID_00000132054315342313242660000012264454103779089049_);" width="5.939" height="304.558"/>
				
					<linearGradient id="SVGID_00000036961025651235604900000016278572897284457902_" gradientUnits="userSpaceOnUse" x1="96.2252" y1="396.566" x2="47.7809" y2="173.4979">
					<stop  offset="0" style="stop-color:#8161C5"/>
					<stop  offset="0.4385" style="stop-color:#F38770"/>
					<stop  offset="1" style="stop-color:#EEC000"/>
				</linearGradient>
				<path style="fill:url(#SVGID_00000036961025651235604900000016278572897284457902_);" d="M109.255,161.811v-3.576H78.211H47.168
					v3.576h-5.669v303.617h3.239v-9.018h9.988v9.018h4.252v-9.018h9.988v9.018h4.252v-9.018h9.988v9.018h4.252v-9.018h9.988v9.018
					h4.252v-9.018h9.988v9.018h3.239V161.811H109.255z M54.726,452.529h-9.988v-3.388h9.988V452.529z M54.726,445.52h-9.988v-3.388
					h9.988V445.52z M54.726,438.511h-9.988v-3.388h9.988V438.511z M54.726,431.502h-9.988v-3.388h9.988V431.502z M54.726,424.493
					h-9.988v-3.388h9.988V424.493z M54.726,417.483h-9.988v-3.388h9.988V417.483z M54.726,410.474h-9.988v-3.388h9.988V410.474z
					 M54.726,403.465h-9.988v-3.388h9.988V403.465z M54.726,396.456h-9.988v-3.388h9.988V396.456z M54.726,389.447h-9.988v-3.388
					h9.988V389.447z M54.726,382.438h-9.988v-3.388h9.988V382.438z M54.726,375.429h-9.988v-3.388h9.988V375.429z M54.726,368.42
					h-9.988v-3.388h9.988V368.42z M54.726,361.41h-9.988v-3.388h9.988V361.41z M54.726,354.401h-9.988v-3.388h9.988V354.401z
					 M54.726,347.392h-9.988v-3.388h9.988V347.392z M54.726,340.383h-9.988v-3.388h9.988V340.383z M54.726,333.374h-9.988v-3.388
					h9.988V333.374z M54.726,326.365h-9.988v-3.388h9.988V326.365z M54.726,319.355h-9.988v-3.388h9.988V319.355z M54.726,312.346
					h-9.988v-3.388h9.988V312.346z M54.726,305.337h-9.988v-3.388h9.988V305.337z M54.726,298.328h-9.988v-3.388h9.988V298.328z
					 M54.726,291.319h-9.988v-3.388h9.988V291.319z M54.726,284.31h-9.988v-3.388h9.988V284.31z M54.726,277.301h-9.988v-3.388
					h9.988V277.301z M54.726,270.292h-9.988v-3.388h9.988V270.292z M54.726,263.283h-9.988v-3.388h9.988V263.283z M54.726,256.273
					h-9.988v-3.388h9.988V256.273z M54.726,249.264h-9.988v-3.388h9.988V249.264z M54.726,242.255h-9.988v-3.388h9.988V242.255z
					 M54.726,235.246h-9.988v-3.388h9.988V235.246z M54.726,228.237h-9.988v-3.388h9.988V228.237z M54.726,221.228h-9.988v-3.388
					h9.988V221.228z M54.726,214.218h-9.988v-3.388h9.988V214.218z M54.726,207.209h-9.988v-3.388h9.988V207.209z M54.726,200.2
					h-9.988v-3.388h9.988V200.2z M54.726,193.191h-9.988v-3.388h9.988V193.191z M54.726,186.182h-9.988v-3.388h9.988V186.182z
					 M54.726,179.173h-9.988v-3.388h9.988V179.173z M54.726,172.164h-9.988v-3.388h9.988V172.164z M68.966,452.529h-9.988v-3.388
					h9.988V452.529z M68.966,445.52h-9.988v-3.388h9.988V445.52z M68.966,438.511h-9.988v-3.388h9.988V438.511z M68.966,431.502
					h-9.988v-3.388h9.988V431.502z M68.966,424.493h-9.988v-3.388h9.988V424.493z M68.966,417.483h-9.988v-3.388h9.988V417.483z
					 M68.966,410.474h-9.988v-3.388h9.988V410.474z M68.966,403.465h-9.988v-3.388h9.988V403.465z M68.966,396.456h-9.988v-3.388
					h9.988V396.456z M68.966,389.447h-9.988v-3.388h9.988V389.447z M68.966,382.438h-9.988v-3.388h9.988V382.438z M68.966,375.429
					h-9.988v-3.388h9.988V375.429z M68.966,368.42h-9.988v-3.388h9.988V368.42z M68.966,361.41h-9.988v-3.388h9.988V361.41z
					 M68.966,354.401h-9.988v-3.388h9.988V354.401z M68.966,347.392h-9.988v-3.388h9.988V347.392z M68.966,340.383h-9.988v-3.388
					h9.988V340.383z M68.966,333.374h-9.988v-3.388h9.988V333.374z M68.966,326.365h-9.988v-3.388h9.988V326.365z M68.966,319.355
					h-9.988v-3.388h9.988V319.355z M68.966,312.346h-9.988v-3.388h9.988V312.346z M68.966,305.337h-9.988v-3.388h9.988V305.337z
					 M68.966,298.328h-9.988v-3.388h9.988V298.328z M68.966,291.319h-9.988v-3.388h9.988V291.319z M68.966,284.31h-9.988v-3.388
					h9.988V284.31z M68.966,277.301h-9.988v-3.388h9.988V277.301z M68.966,270.292h-9.988v-3.388h9.988V270.292z M68.966,263.283
					h-9.988v-3.388h9.988V263.283z M68.966,256.273h-9.988v-3.388h9.988V256.273z M68.966,249.264h-9.988v-3.388h9.988V249.264z
					 M68.966,242.255h-9.988v-3.388h9.988V242.255z M68.966,235.246h-9.988v-3.388h9.988V235.246z M68.966,228.237h-9.988v-3.388
					h9.988V228.237z M68.966,221.228h-9.988v-3.388h9.988V221.228z M68.966,214.218h-9.988v-3.388h9.988V214.218z M68.966,207.209
					h-9.988v-3.388h9.988V207.209z M68.966,200.2h-9.988v-3.388h9.988V200.2z M68.966,193.191h-9.988v-3.388h9.988V193.191z
					 M68.966,186.182h-9.988v-3.388h9.988V186.182z M68.966,179.173h-9.988v-3.388h9.988V179.173z M68.966,172.164h-9.988v-3.388
					h9.988V172.164z M83.205,452.529h-9.988v-3.388h9.988V452.529z M83.205,445.52h-9.988v-3.388h9.988V445.52z M83.205,438.511
					h-9.988v-3.388h9.988V438.511z M83.205,431.502h-9.988v-3.388h9.988V431.502z M83.205,424.493h-9.988v-3.388h9.988V424.493z
					 M83.205,417.483h-9.988v-3.388h9.988V417.483z M83.205,410.474h-9.988v-3.388h9.988V410.474z M83.205,403.465h-9.988v-3.388
					h9.988V403.465z M83.205,396.456h-9.988v-3.388h9.988V396.456z M83.205,389.447h-9.988v-3.388h9.988V389.447z M83.205,382.438
					h-9.988v-3.388h9.988V382.438z M83.205,375.429h-9.988v-3.388h9.988V375.429z M83.205,368.42h-9.988v-3.388h9.988V368.42z
					 M83.205,361.41h-9.988v-3.388h9.988V361.41z M83.205,354.401h-9.988v-3.388h9.988V354.401z M83.205,347.392h-9.988v-3.388
					h9.988V347.392z M83.205,340.383h-9.988v-3.388h9.988V340.383z M83.205,333.374h-9.988v-3.388h9.988V333.374z M83.205,326.365
					h-9.988v-3.388h9.988V326.365z M83.205,319.355h-9.988v-3.388h9.988V319.355z M83.205,312.346h-9.988v-3.388h9.988V312.346z
					 M83.205,305.337h-9.988v-3.388h9.988V305.337z M83.205,298.328h-9.988v-3.388h9.988V298.328z M83.205,291.319h-9.988v-3.388
					h9.988V291.319z M83.205,284.31h-9.988v-3.388h9.988V284.31z M83.205,277.301h-9.988v-3.388h9.988V277.301z M83.205,270.292
					h-9.988v-3.388h9.988V270.292z M83.205,263.283h-9.988v-3.388h9.988V263.283z M83.205,256.273h-9.988v-3.388h9.988V256.273z
					 M83.205,249.264h-9.988v-3.388h9.988V249.264z M83.205,242.255h-9.988v-3.388h9.988V242.255z M83.205,235.246h-9.988v-3.388
					h9.988V235.246z M83.205,228.237h-9.988v-3.388h9.988V228.237z M83.205,221.228h-9.988v-3.388h9.988V221.228z M83.205,214.218
					h-9.988v-3.388h9.988V214.218z M83.205,207.209h-9.988v-3.388h9.988V207.209z M83.205,200.2h-9.988v-3.388h9.988V200.2z
					 M83.205,193.191h-9.988v-3.388h9.988V193.191z M83.205,186.182h-9.988v-3.388h9.988V186.182z M83.205,179.173h-9.988v-3.388
					h9.988V179.173z M83.205,172.164h-9.988v-3.388h9.988V172.164z M97.445,452.529h-9.988v-3.388h9.988V452.529z M97.445,445.52
					h-9.988v-3.388h9.988V445.52z M97.445,438.511h-9.988v-3.388h9.988V438.511z M97.445,431.502h-9.988v-3.388h9.988V431.502z
					 M97.445,424.493h-9.988v-3.388h9.988V424.493z M97.445,417.483h-9.988v-3.388h9.988V417.483z M97.445,410.474h-9.988v-3.388
					h9.988V410.474z M97.445,403.465h-9.988v-3.388h9.988V403.465z M97.445,396.456h-9.988v-3.388h9.988V396.456z M97.445,389.447
					h-9.988v-3.388h9.988V389.447z M97.445,382.438h-9.988v-3.388h9.988V382.438z M97.445,375.429h-9.988v-3.388h9.988V375.429z
					 M97.445,368.42h-9.988v-3.388h9.988V368.42z M97.445,361.41h-9.988v-3.388h9.988V361.41z M97.445,354.401h-9.988v-3.388h9.988
					V354.401z M97.445,347.392h-9.988v-3.388h9.988V347.392z M97.445,340.383h-9.988v-3.388h9.988V340.383z M97.445,333.374h-9.988
					v-3.388h9.988V333.374z M97.445,326.365h-9.988v-3.388h9.988V326.365z M97.445,319.355h-9.988v-3.388h9.988V319.355z
					 M97.445,312.346h-9.988v-3.388h9.988V312.346z M97.445,305.337h-9.988v-3.388h9.988V305.337z M97.445,298.328h-9.988v-3.388
					h9.988V298.328z M97.445,291.319h-9.988v-3.388h9.988V291.319z M97.445,284.31h-9.988v-3.388h9.988V284.31z M97.445,277.301
					h-9.988v-3.388h9.988V277.301z M97.445,270.292h-9.988v-3.388h9.988V270.292z M97.445,263.283h-9.988v-3.388h9.988V263.283z
					 M97.445,256.273h-9.988v-3.388h9.988V256.273z M97.445,249.264h-9.988v-3.388h9.988V249.264z M97.445,242.255h-9.988v-3.388
					h9.988V242.255z M97.445,235.246h-9.988v-3.388h9.988V235.246z M97.445,228.237h-9.988v-3.388h9.988V228.237z M97.445,221.228
					h-9.988v-3.388h9.988V221.228z M97.445,214.218h-9.988v-3.388h9.988V214.218z M97.445,207.209h-9.988v-3.388h9.988V207.209z
					 M97.445,200.2h-9.988v-3.388h9.988V200.2z M97.445,193.191h-9.988v-3.388h9.988V193.191z M97.445,186.182h-9.988v-3.388h9.988
					V186.182z M97.445,179.173h-9.988v-3.388h9.988V179.173z M97.445,172.164h-9.988v-3.388h9.988V172.164z M111.685,452.529h-9.988
					v-3.388h9.988V452.529z M111.685,445.52h-9.988v-3.388h9.988V445.52z M111.685,438.511h-9.988v-3.388h9.988V438.511z
					 M111.685,431.502h-9.988v-3.388h9.988V431.502z M111.685,424.493h-9.988v-3.388h9.988V424.493z M111.685,417.483h-9.988v-3.388
					h9.988V417.483z M111.685,410.474h-9.988v-3.388h9.988V410.474z M111.685,403.465h-9.988v-3.388h9.988V403.465z
					 M111.685,396.456h-9.988v-3.388h9.988V396.456z M111.685,389.447h-9.988v-3.388h9.988V389.447z M111.685,382.438h-9.988v-3.388
					h9.988V382.438z M111.685,375.429h-9.988v-3.388h9.988V375.429z M111.685,368.42h-9.988v-3.388h9.988V368.42z M111.685,361.41
					h-9.988v-3.388h9.988V361.41z M111.685,354.401h-9.988v-3.388h9.988V354.401z M111.685,347.392h-9.988v-3.388h9.988V347.392z
					 M111.685,340.383h-9.988v-3.388h9.988V340.383z M111.685,333.374h-9.988v-3.388h9.988V333.374z M111.685,326.365h-9.988v-3.388
					h9.988V326.365z M111.685,319.355h-9.988v-3.388h9.988V319.355z M111.685,312.346h-9.988v-3.388h9.988V312.346z
					 M111.685,305.337h-9.988v-3.388h9.988V305.337z M111.685,298.328h-9.988v-3.388h9.988V298.328z M111.685,291.319h-9.988v-3.388
					h9.988V291.319z M111.685,284.31h-9.988v-3.388h9.988V284.31z M111.685,277.301h-9.988v-3.388h9.988V277.301z M111.685,270.292
					h-9.988v-3.388h9.988V270.292z M111.685,263.283h-9.988v-3.388h9.988V263.283z M111.685,256.273h-9.988v-3.388h9.988V256.273z
					 M111.685,249.264h-9.988v-3.388h9.988V249.264z M111.685,242.255h-9.988v-3.388h9.988V242.255z M111.685,235.246h-9.988v-3.388
					h9.988V235.246z M111.685,228.237h-9.988v-3.388h9.988V228.237z M111.685,221.228h-9.988v-3.388h9.988V221.228z
					 M111.685,214.218h-9.988v-3.388h9.988V214.218z M111.685,207.209h-9.988v-3.388h9.988V207.209z M111.685,200.2h-9.988v-3.388
					h9.988V200.2z M111.685,193.191h-9.988v-3.388h9.988V193.191z M111.685,186.182h-9.988v-3.388h9.988V186.182z M111.685,179.173
					h-9.988v-3.388h9.988V179.173z M111.685,172.164h-9.988v-3.388h9.988V172.164z"/>
			</g>
			<g>
				
					<linearGradient id="SVGID_00000000923131342766230790000012255834547897225139_" gradientUnits="userSpaceOnUse" x1="165.1866" y1="415.8801" x2="182.0718" y2="180.5438">
					<stop  offset="0" style="stop-color:#49B5AA"/>
					<stop  offset="0.0261" style="stop-color:#54B8B0"/>
					<stop  offset="0.1673" style="stop-color:#8BC5D0"/>
					<stop  offset="0.2725" style="stop-color:#AECEE4"/>
					<stop  offset="0.3292" style="stop-color:#BBD1EC"/>
					<stop  offset="0.6374" style="stop-color:#E1659C"/>
					<stop  offset="1" style="stop-color:#1C3A5C"/>
				</linearGradient>
				<polygon style="fill:url(#SVGID_00000000923131342766230790000012255834547897225139_);" points="143.759,230.4 
					143.759,312.368 135.152,312.368 135.152,363.259 159.13,363.259 159.13,388.51 190.369,388.51 190.369,465.428 
					199.093,465.428 199.093,210.199 186.182,210.199 186.182,230.4 				"/>
				
					<linearGradient id="SVGID_00000008849108832444169720000011550914886739116940_" gradientUnits="userSpaceOnUse" x1="161.6657" y1="416.4636" x2="178.6053" y2="180.369">
					<stop  offset="0" style="stop-color:#49B5AA"/>
					<stop  offset="0.0261" style="stop-color:#54B8B0"/>
					<stop  offset="0.1673" style="stop-color:#8BC5D0"/>
					<stop  offset="0.2725" style="stop-color:#AECEE4"/>
					<stop  offset="0.3292" style="stop-color:#BBD1EC"/>
					<stop  offset="0.6374" style="stop-color:#E1659C"/>
					<stop  offset="1" style="stop-color:#1C3A5C"/>
				</linearGradient>
				<path style="fill:url(#SVGID_00000008849108832444169720000011550914886739116940_);" d="M156.053,390.928v-23.007h-20.899
					v97.505h52.993v-74.499H156.053z M143.879,451.652h-3.817v-8.754h3.817V451.652z M143.879,433.208h-3.817v-4.296h3.817V433.208z
					 M143.879,425.185h-3.817v-4.303h3.817V425.185z M143.879,417.155h-3.817v-4.296h3.817V417.155z M143.879,409.132h-3.817v-4.303
					h3.817V409.132z M143.879,401.102h-3.817v-4.296h3.817V401.102z M143.879,393.079h-3.817v-4.303h3.817V393.079z M143.879,385.05
					h-3.817v-4.296h3.817V385.05z M143.879,377.02h-3.817v-4.296h3.817V377.02z M150.622,451.652h-3.817v-8.754h3.817V451.652z
					 M150.622,433.208h-3.817v-4.296h3.817V433.208z M150.622,425.185h-3.817v-4.303h3.817V425.185z M150.622,417.155h-3.817v-4.296
					h3.817V417.155z M150.622,409.132h-3.817v-4.303h3.817V409.132z M150.622,401.102h-3.817v-4.296h3.817V401.102z
					 M150.622,393.079h-3.817v-4.303h3.817V393.079z M150.622,385.05h-3.817v-4.296h3.817V385.05z M150.622,377.02h-3.817v-4.296
					h3.817V377.02z M157.366,451.652h-3.817v-8.754h3.817V451.652z M157.366,433.208h-3.817v-4.296h3.817V433.208z M157.366,425.185
					h-3.817v-4.303h3.817V425.185z M157.366,417.155h-3.817v-4.296h3.817V417.155z M157.366,409.132h-3.817v-4.303h3.817V409.132z
					 M157.366,401.102h-3.817v-4.296h3.817V401.102z M164.11,451.652h-3.817v-8.754h3.817V451.652z M164.11,433.208h-3.817v-4.296
					h3.817V433.208z M164.11,425.185h-3.817v-4.303h3.817V425.185z M164.11,417.155h-3.817v-4.296h3.817V417.155z M164.11,409.132
					h-3.817v-4.303h3.817V409.132z M164.11,401.102h-3.817v-4.296h3.817V401.102z M170.854,451.652h-3.817v-8.754h3.817V451.652z
					 M170.854,433.208h-3.817v-4.296h3.817V433.208z M170.854,425.185h-3.817v-4.303h3.817V425.185z M170.854,417.155h-3.817v-4.296
					h3.817V417.155z M170.854,409.132h-3.817v-4.303h3.817V409.132z M170.854,401.102h-3.817v-4.296h3.817V401.102z
					 M177.598,451.652h-3.817v-8.754h3.817V451.652z M177.598,433.208h-3.817v-4.296h3.817V433.208z M177.598,425.185h-3.817v-4.303
					h3.817V425.185z M177.598,417.155h-3.817v-4.296h3.817V417.155z M177.598,409.132h-3.817v-4.303h3.817V409.132z
					 M177.598,401.102h-3.817v-4.296h3.817V401.102z M184.341,451.652h-3.817v-8.754h3.817V451.652z M184.341,433.208h-3.817v-4.296
					h3.817V433.208z M184.341,425.185h-3.817v-4.303h3.817V425.185z M184.341,417.155h-3.817v-4.296h3.817V417.155z
					 M184.341,409.132h-3.817v-4.303h3.817V409.132z M184.341,401.102h-3.817v-4.296h3.817V401.102z"/>
				
					<linearGradient id="SVGID_00000125588711395030094010000014228911261776838321_" gradientUnits="userSpaceOnUse" x1="151.3827" y1="421.6745" x2="168.7896" y2="179.0684">
					<stop  offset="0" style="stop-color:#49B5AA"/>
					<stop  offset="0.0261" style="stop-color:#54B8B0"/>
					<stop  offset="0.1673" style="stop-color:#8BC5D0"/>
					<stop  offset="0.2725" style="stop-color:#AECEE4"/>
					<stop  offset="0.3292" style="stop-color:#BBD1EC"/>
					<stop  offset="0.6374" style="stop-color:#E1659C"/>
					<stop  offset="1" style="stop-color:#1C3A5C"/>
				</linearGradient>
				<path style="fill:url(#SVGID_00000125588711395030094010000014228911261776838321_);" d="M154.206,204.369v14.766h-10.26v8.543
					h39.161v-19.034h5.531v-4.275H154.206z M157.867,225.787h-3.817v-4.296h3.817V225.787z M164.499,225.787h-3.817v-4.296h3.817
					V225.787z M171.121,225.787h-3.817v-4.296h3.817V225.787z M171.121,219.993h-3.817v-4.296h3.817V219.993z M171.121,214.199
					h-3.817v-4.296h3.817V214.199z M177.742,225.787h-3.817v-4.296h3.817V225.787z M177.742,219.993h-3.817v-4.296h3.817V219.993z
					 M177.742,214.199h-3.817v-4.296h3.817V214.199z"/>
				
					<linearGradient id="SVGID_00000039132437078839628120000008052560360950683534_" gradientUnits="userSpaceOnUse" x1="186.6097" y1="417.0821" x2="203.4704" y2="182.0864">
					<stop  offset="0" style="stop-color:#49B5AA"/>
					<stop  offset="0.0261" style="stop-color:#54B8B0"/>
					<stop  offset="0.1673" style="stop-color:#8BC5D0"/>
					<stop  offset="0.2725" style="stop-color:#AECEE4"/>
					<stop  offset="0.3292" style="stop-color:#BBD1EC"/>
					<stop  offset="0.6374" style="stop-color:#E1659C"/>
					<stop  offset="1" style="stop-color:#1C3A5C"/>
				</linearGradient>
				<polygon style="fill:url(#SVGID_00000039132437078839628120000008052560360950683534_);" points="206.471,219.425 
					206.471,204.372 200.477,198.217 200.477,174.847 199.093,169.797 197.71,174.847 197.71,198.279 192.023,204.372 
					192.023,208.451 201.86,208.451 201.86,230.4 209.853,230.4 209.853,219.425 				"/>
				
					<linearGradient id="SVGID_00000170994477493299383340000004260074377373641396_" gradientUnits="userSpaceOnUse" x1="200.9045" y1="418.2347" x2="217.7898" y2="182.8971">
					<stop  offset="0" style="stop-color:#49B5AA"/>
					<stop  offset="0.0261" style="stop-color:#54B8B0"/>
					<stop  offset="0.1673" style="stop-color:#8BC5D0"/>
					<stop  offset="0.2725" style="stop-color:#AECEE4"/>
					<stop  offset="0.3292" style="stop-color:#BBD1EC"/>
					<stop  offset="0.6374" style="stop-color:#E1659C"/>
					<stop  offset="1" style="stop-color:#1C3A5C"/>
				</linearGradient>
				<path style="fill:url(#SVGID_00000170994477493299383340000004260074377373641396_);" d="M201.857,233.121v232.306h7.99V233.121
					H201.857z M203.883,392.791h3.405v3.488h-3.405V392.791z M203.883,398.951h3.405v3.481h-3.405V398.951z M203.883,405.103h3.405
					v3.488h-3.405V405.103z M203.883,411.263h3.405v3.48h-3.405V411.263z M203.883,417.415h3.405v3.488h-3.405V417.415z
					 M203.883,423.568h3.405v3.488h-3.405V423.568z M203.883,429.728h3.405v3.481h-3.405V429.728z M207.499,451.652h-3.817v-8.754
					h3.817V451.652z"/>
			</g>
			<g>
				
					<linearGradient id="SVGID_00000091704494069161077720000012883952292659413918_" gradientUnits="userSpaceOnUse" x1="470.0534" y1="308.6459" x2="386.7257" y2="467.489">
					<stop  offset="0" style="stop-color:#8161C5"/>
					<stop  offset="0.5861" style="stop-color:#61B2A3"/>
					<stop  offset="1" style="stop-color:#EEC000"/>
				</linearGradient>
				<polygon style="fill:url(#SVGID_00000091704494069161077720000012883952292659413918_);" points="530.032,438.455 
					505.978,438.455 499.251,438.455 475.197,438.455 468.47,438.455 444.417,438.455 437.69,438.455 413.636,438.455 
					406.909,438.455 382.855,438.455 376.128,438.455 352.074,438.455 345.347,438.455 321.293,438.455 314.566,438.455 
					290.512,438.455 283.785,438.455 259.732,438.455 253.005,438.455 253.005,448.785 253.005,465.428 259.732,465.428 
					259.732,448.785 283.785,448.785 283.785,465.428 290.512,465.428 290.512,448.785 314.566,448.785 314.566,465.428 
					321.293,465.428 321.293,448.785 345.347,448.785 345.347,465.428 352.074,465.428 352.074,448.785 376.128,448.785 
					376.128,465.428 382.855,465.428 382.855,448.785 406.909,448.785 406.909,465.428 413.636,465.428 413.636,448.785 
					437.69,448.785 437.69,465.428 444.417,465.428 444.417,448.785 468.47,448.785 468.47,465.428 475.197,465.428 
					475.197,448.785 499.251,448.785 499.251,465.428 505.978,465.428 505.978,448.785 530.032,448.785 530.032,465.428 
					536.759,465.428 536.759,448.785 536.759,438.455 				"/>
				<g>
					<g>
						
							<linearGradient id="SVGID_00000134211363688900987240000016452005408186599049_" gradientUnits="userSpaceOnUse" x1="484.303" y1="310.1795" x2="397.3747" y2="475.8863">
							<stop  offset="0" style="stop-color:#8161C5"/>
							<stop  offset="0.5861" style="stop-color:#61B2A3"/>
							<stop  offset="1" style="stop-color:#EEC000"/>
						</linearGradient>
						<path style="fill:url(#SVGID_00000134211363688900987240000016452005408186599049_);" d="M468.463,193.629V435.05h27.315
							V221.559c0,0-9.785-31.756-13.658-31.756S468.463,193.629,468.463,193.629z"/>
						
							<linearGradient id="SVGID_00000007425032321108546820000010770665616166793357_" gradientUnits="userSpaceOnUse" x1="459.0586" y1="295.9174" x2="372.6285" y2="460.6745">
							<stop  offset="0" style="stop-color:#8161C5"/>
							<stop  offset="0.5861" style="stop-color:#61B2A3"/>
							<stop  offset="1" style="stop-color:#EEC000"/>
						</linearGradient>
						<path style="fill:url(#SVGID_00000007425032321108546820000010770665616166793357_);" d="M464.996,206.259v-4.979h-8.766v46.3
							c0,0-24.461,19.128-62.78,22.955v164.513h71.545v-6.122h-5.402v-3.845h5.402v-1.914h-5.402v-3.845h5.402v-1.914h-5.402v-3.846
							h5.402v-1.904h-5.402v-3.855h5.402v-1.905h-5.402v-3.854h5.402v-1.905h-5.402v-3.855h5.402v-1.905h-5.402v-3.846h5.402v-1.914
							h-5.402v-3.845h5.402v-1.914h-5.402v-3.845h5.402v-1.914h-5.402v-3.846h5.402v-1.913h-5.402v-3.846h5.402v-1.913h-5.402
							v-3.845h5.402v-1.914h-5.402v-3.845h5.402v-1.914h-5.402v-3.845h5.402v-1.914h-5.402v-3.846h5.402v-1.913h-5.402v-3.846h5.402
							v-1.914h-5.402v-3.845h5.402v-1.914h-5.402v-3.845h5.402v-1.905h-5.402v-3.855h5.402v-1.905h-5.402v-3.855h5.402v-1.905
							h-5.402v-3.855h5.402v-1.904h-5.402v-3.855h5.402v-1.904h-5.402v-3.846h5.402v-1.914h-5.402v-3.846h5.402v-1.914h-5.402
							v-3.845h5.402v-1.914h-5.402v-3.845h5.402v-1.914h-5.402v-3.846h5.402v-1.913h-5.402V269.6h5.402v-1.914h-5.402v-3.845h5.402
							v-1.914h-5.402v-3.846h5.402v-1.914h-5.402v-3.845h5.402v-1.914h-5.402v-3.846h5.402v-1.913h-5.402v-3.846h5.402v-1.914
							h-5.402v-3.846h5.402v-1.905h-5.402v-3.854h5.402v-1.904h-5.402v-3.855h5.402v-1.905h-5.402v-3.854h5.402v-1.905h-5.402
							v-3.854h5.402v-1.905h-5.402v-3.845H464.996z M410.355,417.854c-1.546-0.109-3.112-0.245-4.678-0.399v-10.031
							c0,0,1.73,0.136,4.678,0.254V417.854z M410.355,403.805c-2.957-0.245-4.678-0.508-4.678-0.508v-10.711
							c1.585,0.154,3.141,0.272,4.678,0.363V403.805z M410.355,388.359c-2.938-0.172-4.678-0.39-4.678-0.39v-12.153
							c1.595,0.109,3.151,0.182,4.678,0.218V388.359z M410.355,371.898c-2.957-0.027-4.678-0.172-4.678-0.172v-13.958
							c1.604-0.036,3.16-0.082,4.678-0.154V371.898z M410.355,354.249c-2.938,0.118-4.678,0.082-4.678,0.082v-9.949
							c1.585-0.036,3.141-0.109,4.678-0.199V354.249z M410.355,339.728c-2.928,0.318-4.678,0.435-4.678,0.435v-8.997
							c1.595-0.091,3.151-0.209,4.678-0.345V339.728z M410.355,326.977c-2.938,0.309-4.678,0.372-4.678,0.372v-9.949
							c1.585-0.127,3.141-0.281,4.678-0.463V326.977z M410.355,313.49c-2.928,0.463-4.678,0.662-4.678,0.662v-8.997
							c1.595-0.218,3.151-0.453,4.678-0.717V313.49z M410.355,300.911c-2.938,0.562-4.678,0.807-4.678,0.807v-8.834
							c1.595-0.308,3.16-0.635,4.678-0.979V300.911z M410.355,288.123c-2.928,0.653-4.678,0.961-4.678,0.961v-17.023
							c1.595-0.327,3.151-0.671,4.678-1.034V288.123z M416.82,418.189c-1.488-0.054-3.006-0.118-4.533-0.209v-10.239
							c1.343,0.036,2.87,0.063,4.533,0.082V418.189z M416.82,404.149c-1.672-0.045-3.189-0.118-4.533-0.208v-10.883
							c1.546,0.073,3.054,0.109,4.533,0.127V404.149z M416.82,388.559c-1.653,0-3.18-0.046-4.533-0.1v-12.38
							c1.546,0.027,3.064,0.018,4.533-0.018V388.559z M416.82,371.78c-1.672,0.073-3.189,0.109-4.533,0.118v-14.384
							c1.556-0.091,3.064-0.2,4.533-0.327V371.78z M416.82,353.832c-1.662,0.145-3.18,0.254-4.533,0.336v-10.122
							c1.537-0.118,3.054-0.263,4.533-0.435V353.832z M416.82,338.903c-1.662,0.236-3.18,0.435-4.533,0.598v-8.87
							c1.556-0.154,3.064-0.336,4.533-0.535V338.903z M416.82,326.151c-1.662,0.254-3.18,0.453-4.533,0.617v-10.076
							c1.537-0.199,3.044-0.435,4.533-0.689V326.151z M416.82,312.348c-1.653,0.318-3.18,0.599-4.533,0.825v-9.07
							c1.546-0.29,3.064-0.59,4.533-0.907V312.348z M416.82,299.514c-1.662,0.399-3.18,0.725-4.533,1.007v-9.051
							c1.556-0.354,3.064-0.725,4.533-1.106V299.514z M416.82,286.563c-1.662,0.435-3.18,0.807-4.533,1.125v-17.133
							c1.546-0.381,3.064-0.789,4.533-1.215V286.563z M423.286,418.289c-1.488,0-2.996-0.009-4.533-0.046v-10.412
							c1.43,0,2.948-0.009,4.533-0.045V418.289z M423.286,404.14c-1.594,0.045-3.112,0.054-4.533,0.036v-10.983
							c1.546-0.009,3.064-0.036,4.533-0.1V404.14z M423.286,388.432c-1.585,0.072-3.102,0.118-4.533,0.127v-12.561
							c1.556-0.064,3.064-0.154,4.533-0.272V388.432z M423.286,371.299c-1.594,0.163-3.102,0.281-4.533,0.372v-14.666
							c1.566-0.163,3.073-0.335,4.533-0.526V371.299z M423.286,353.079c-1.585,0.227-3.102,0.408-4.533,0.553v-10.249
							c1.546-0.199,3.054-0.417,4.533-0.653V353.079z M423.286,337.851c-1.585,0.29-3.102,0.535-4.533,0.762v-8.797
							c1.556-0.227,3.073-0.481,4.533-0.762V337.851z M423.286,324.99c-1.585,0.327-3.102,0.608-4.533,0.853v-10.176
							c1.546-0.29,3.054-0.599,4.533-0.925V324.99z M423.286,310.96c-1.575,0.363-3.093,0.698-4.533,0.989v-9.187
							c1.556-0.363,3.064-0.744,4.533-1.134V310.96z M423.286,297.854c-1.575,0.444-3.093,0.843-4.533,1.197v-9.197
							c1.566-0.426,3.073-0.852,4.533-1.297V297.854z M423.286,284.749c-1.585,0.472-3.102,0.907-4.533,1.297v-17.268
							c1.556-0.463,3.064-0.943,4.533-1.433V284.749z M429.751,418.18c-1.479,0.045-2.986,0.082-4.533,0.1v-10.539
							c1.459-0.046,2.977-0.1,4.533-0.182V418.18z M429.751,403.796c-1.556,0.127-3.073,0.218-4.533,0.272v-11.064
							c1.566-0.082,3.073-0.2,4.533-0.327V403.796z M429.751,387.933c-1.546,0.172-3.064,0.299-4.533,0.39v-12.77
							c1.566-0.145,3.073-0.326,4.533-0.526V387.933z M429.751,370.465c-1.556,0.245-3.073,0.444-4.533,0.617v-14.874
							c1.576-0.227,3.083-0.472,4.533-0.735V370.465z M429.751,352.009c-1.556,0.299-3.064,0.562-4.533,0.789v-10.403
							c1.556-0.272,3.073-0.571,4.533-0.88V352.009z M429.751,336.563c-1.546,0.336-3.064,0.653-4.533,0.934v-8.815
							c1.576-0.317,3.083-0.653,4.533-0.997V336.563z M429.751,323.512c-1.546,0.399-3.064,0.753-4.533,1.07v-10.285
							c1.556-0.363,3.064-0.753,4.533-1.152V323.512z M429.751,309.309c-1.546,0.426-3.064,0.825-4.533,1.179v-9.396
							c1.566-0.435,3.073-0.889,4.533-1.36V309.309z M429.751,295.913c-1.546,0.499-3.064,0.97-4.533,1.397v-9.341
							c1.576-0.499,3.083-0.998,4.533-1.497V295.913z M429.751,282.681c-1.546,0.526-3.064,1.025-4.533,1.478v-17.477
							c1.566-0.553,3.073-1.115,4.533-1.678V282.681z M436.217,417.872c-1.459,0.081-2.967,0.163-4.533,0.236v-10.657
							c1.488-0.091,2.996-0.199,4.533-0.327V417.872z M436.217,403.079c-1.537,0.218-3.054,0.399-4.533,0.544v-11.138
							c1.575-0.172,3.093-0.363,4.533-0.572V403.079z M436.217,387.026c-1.527,0.272-3.044,0.499-4.533,0.68v-12.96
							c1.575-0.245,3.093-0.517,4.533-0.807V387.026z M436.217,369.241c-1.537,0.345-3.054,0.635-4.533,0.898v-15.037
							c1.595-0.318,3.102-0.653,4.533-0.998V369.241z M436.217,350.548c-1.527,0.399-3.044,0.753-4.533,1.061v-10.521
							c1.575-0.345,3.083-0.716,4.533-1.097V350.548z M436.217,334.985c-1.527,0.417-3.044,0.789-4.533,1.134v-8.916
							c1.595-0.417,3.102-0.843,4.533-1.279V334.985z M436.217,321.653c-1.527,0.49-3.044,0.934-4.533,1.342v-10.385
							c1.575-0.453,3.083-0.916,4.533-1.379V321.653z M436.217,307.368c-1.517,0.499-3.035,0.961-4.533,1.397v-9.668
							c1.585-0.526,3.093-1.07,4.533-1.605V307.368z M436.217,293.646c-1.527,0.581-3.044,1.125-4.533,1.633v-9.496
							c1.595-0.571,3.102-1.152,4.533-1.723V293.646z M436.217,280.305c-1.527,0.608-3.035,1.17-4.533,1.696v-17.767
							c1.585-0.644,3.093-1.288,4.533-1.941V280.305z M442.682,417.346c-1.43,0.145-2.938,0.272-4.533,0.39v-10.793
							c1.498-0.136,3.015-0.308,4.533-0.499V417.346z M442.682,401.964c-1.527,0.318-3.044,0.59-4.533,0.825v-11.174
							c1.604-0.263,3.122-0.544,4.533-0.834V401.964z M442.682,385.611c-1.508,0.399-3.025,0.753-4.533,1.043v-13.124
							c1.604-0.354,3.122-0.725,4.533-1.107V385.611z M442.682,367.599c-1.527,0.445-3.044,0.844-4.533,1.206v-15.191
							c1.624-0.426,3.131-0.862,4.533-1.306V367.599z M442.682,348.653c-1.508,0.508-3.025,0.961-4.533,1.379v-10.557
							c1.595-0.435,3.112-0.889,4.533-1.333V348.653z M442.682,333.081c-1.508,0.499-3.025,0.952-4.533,1.378v-9.151
							c1.624-0.526,3.131-1.061,4.533-1.596V333.081z M442.682,319.358c-1.517,0.599-3.025,1.152-4.533,1.66v-10.43
							c1.604-0.535,3.112-1.079,4.533-1.614V319.358z M442.682,305.046c-1.498,0.59-3.015,1.143-4.533,1.669v-9.967
							c1.614-0.644,3.122-1.27,4.533-1.896V305.046z M442.682,291.007c-1.508,0.671-3.025,1.306-4.533,1.896v-9.632
							c1.624-0.68,3.131-1.351,4.533-2.004V291.007z M442.682,277.575c-1.508,0.689-3.025,1.342-4.533,1.959v-18.112
							c1.614-0.753,3.122-1.497,4.533-2.213V277.575z M449.148,428.927h-4.533v-7.147c1.585-0.154,3.112-0.336,4.533-0.535V428.927z
							 M449.148,416.638c-1.353,0.173-2.87,0.354-4.533,0.526V406.19c1.517-0.209,3.025-0.444,4.533-0.707V416.638z
							 M449.148,400.376c-1.517,0.435-3.025,0.825-4.533,1.17v-11.174c1.682-0.381,3.189-0.762,4.533-1.125V400.376z
							 M449.148,383.552c-1.488,0.571-3.006,1.07-4.533,1.515V371.88c1.682-0.481,3.199-0.979,4.533-1.442V383.552z
							 M449.148,365.468c-1.517,0.562-3.025,1.079-4.533,1.551v-15.346c1.701-0.572,3.209-1.152,4.533-1.696V365.468z
							 M449.148,346.204c-1.498,0.644-3.015,1.233-4.533,1.787v-10.457c1.672-0.544,3.189-1.079,4.533-1.578V346.204z
							 M449.148,330.732c-1.488,0.607-2.996,1.179-4.533,1.705v-9.478c1.701-0.698,3.209-1.37,4.533-2.004V330.732z M449.148,316.51
							c-1.498,0.734-3.015,1.424-4.533,2.059v-10.34c1.672-0.653,3.189-1.288,4.533-1.877V316.51z M449.148,302.208
							c-1.479,0.726-2.996,1.406-4.533,2.05v-10.276c1.682-0.771,3.199-1.514,4.533-2.204V302.208z M449.148,287.869
							c-1.488,0.798-3.006,1.551-4.533,2.258v-9.777c1.701-0.834,3.209-1.623,4.533-2.358V287.869z M449.148,274.373
							c-1.488,0.807-3.006,1.578-4.533,2.304v-18.484c1.682-0.907,3.199-1.759,4.533-2.558V274.373z M456.435,428.927h-5.354v-7.99
							c2.088-0.345,3.914-0.753,5.354-1.233V428.927z M456.435,415.541c0,0-1.952,0.372-5.354,0.843V405.12
							c1.807-0.336,3.595-0.726,5.354-1.161V415.541z M456.435,397.937c-1.778,0.689-3.566,1.315-5.354,1.868v-11.12
							c3.479-1.034,5.354-1.841,5.354-1.841V397.937z M456.435,380.124c-1.72,0.998-3.508,1.877-5.354,2.648v-13.051
							c3.499-1.324,5.354-2.331,5.354-2.331V380.124z M456.435,362.357c-1.769,0.862-3.556,1.651-5.354,2.358v-15.572
							c3.634-1.642,5.354-2.857,5.354-2.857V362.357z M456.435,342.54c-1.74,1.016-3.527,1.95-5.354,2.802V335.23
							c3.441-1.324,5.354-2.258,5.354-2.258V342.54z M456.435,327.349c-1.711,0.925-3.508,1.787-5.354,2.585v-9.94
							c3.585-1.841,5.354-3.165,5.354-3.165V327.349z M456.435,312.429c-1.74,1.116-3.527,2.149-5.354,3.102V305.5
							c3.441-1.569,5.354-2.639,5.354-2.639V312.429z M456.435,298.081c-1.682,1.125-3.479,2.168-5.354,3.147v-10.475
							c3.499-1.905,5.354-3.193,5.354-3.193V298.081z M456.435,283.543c-1.73,1.161-3.518,2.249-5.354,3.274v-9.922
							c3.605-2.104,5.354-3.492,5.354-3.492V283.543z M456.435,269.956c-1.711,1.179-3.508,2.286-5.354,3.338v-18.828
							c3.518-2.195,5.354-3.637,5.354-3.637V269.956z"/>
					</g>
					<g>
						
							<linearGradient id="SVGID_00000098909627042231692740000003542517620423831971_" gradientUnits="userSpaceOnUse" x1="361.9981" y1="241.6454" x2="275.1922" y2="407.119">
							<stop  offset="0" style="stop-color:#8161C5"/>
							<stop  offset="0.5861" style="stop-color:#61B2A3"/>
							<stop  offset="1" style="stop-color:#EEC000"/>
						</linearGradient>
						<path style="fill:url(#SVGID_00000098909627042231692740000003542517620423831971_);" d="M314.547,253.325V435.05h-20.561
							V274.349c0,0,7.365-23.904,10.281-23.904C307.181,250.445,314.547,253.325,314.547,253.325z"/>
						
							<linearGradient id="SVGID_00000127750790687315425140000011500190206873053572_" gradientUnits="userSpaceOnUse" x1="391.2412" y1="257.1714" x2="304.2671" y2="422.9656">
							<stop  offset="0" style="stop-color:#8161C5"/>
							<stop  offset="0.5861" style="stop-color:#61B2A3"/>
							<stop  offset="1" style="stop-color:#EEC000"/>
						</linearGradient>
						<path style="fill:url(#SVGID_00000127750790687315425140000011500190206873053572_);" d="M321.223,262.832v2.895h-4.067v1.433
							h4.067v2.902h-4.067v1.434h4.067v2.902h-4.067v1.434h4.067v2.901h-4.067v1.434h4.067v2.901h-4.067v1.434h4.067v2.895h-4.067
							v1.44h4.067v2.895h-4.067v1.44h4.067v2.895h-4.067v1.441h4.067v2.895h-4.067v1.44h4.067v2.895h-4.067v1.441h4.067v2.895
							h-4.067v1.44h4.067v2.895h-4.067v1.44h4.067v2.895h-4.067v1.441h4.067v2.894h-4.067v1.44h4.067v2.895h-4.067v1.44h4.067v2.895
							h-4.067v1.44h4.067v2.895h-4.067v1.434h4.067v2.902h-4.067v1.434h4.067v2.901h-4.067v1.434h4.067v2.901h-4.067v1.434h4.067
							v2.901h-4.067v1.434h4.067v2.894h-4.067v1.441h4.067v2.895h-4.067v1.44h4.067v2.895h-4.067v1.44h4.067v2.895h-4.067v1.44
							h4.067v2.895h-4.067v1.44h4.067v2.895h-4.067v1.441h4.067v2.895h-4.067v1.44h4.067v2.895h-4.067v1.44h4.067v2.895h-4.067v1.44
							h4.067v2.895h-4.067v1.44h4.067v2.894h-4.067v1.441h4.067v2.895h-4.067v1.434h4.067v2.901h-4.067v1.434h4.067v2.902h-4.067
							v1.434h4.067v2.901h-4.067v1.434h4.067v2.895h-4.067v1.44h4.067v2.895h-4.067v1.441h4.067v2.895h-4.067v4.608h53.854V311.214
							c-28.844-2.881-47.256-17.279-47.256-17.279v-34.851h-6.598v3.748H321.223z M358.286,414.446
							c2.219-0.089,3.521-0.191,3.521-0.191v7.551c-1.178,0.116-2.357,0.218-3.521,0.3V414.446z M358.286,403.359
							c1.157-0.068,2.328-0.157,3.521-0.273v8.063c0,0-1.295,0.198-3.521,0.382V403.359z M358.286,390.627
							c1.149-0.027,2.321-0.082,3.521-0.164v9.148c0,0-1.31,0.164-3.521,0.294V390.627z M358.286,376.761
							c1.142,0.054,2.313,0.089,3.521,0.116v10.507c0,0-1.295,0.109-3.521,0.13V376.761z M358.286,366.651
							c1.157,0.068,2.328,0.123,3.521,0.15v7.489c0,0-1.31,0.027-3.521-0.061V366.651z M358.286,356.595
							c1.149,0.102,2.321,0.191,3.521,0.259v6.772c0,0-1.317-0.089-3.521-0.328V356.595z M358.286,346.143
							c1.157,0.137,2.328,0.253,3.521,0.348v7.489c0,0-1.31-0.048-3.521-0.28V346.143z M358.286,336.735
							c1.149,0.198,2.321,0.375,3.521,0.539v6.772c0,0-1.317-0.15-3.521-0.498V336.735z M358.286,327.3
							c1.142,0.259,2.321,0.505,3.521,0.737v6.649c0,0-1.31-0.184-3.521-0.608V327.3z M358.286,311.585
							c1.149,0.273,2.321,0.533,3.521,0.778v12.814c0,0-1.317-0.232-3.521-0.724V311.585z M353.419,414.555
							c1.251-0.014,2.401-0.034,3.412-0.061v7.707c-1.149,0.068-2.291,0.116-3.412,0.157V414.555z M353.419,403.536
							c1.113-0.014,2.248-0.041,3.412-0.096v8.192c-1.011,0.068-2.153,0.123-3.412,0.157V403.536z M353.419,390.647
							c1.106,0.027,2.248,0.034,3.412,0.014v9.319c-1.018,0.041-2.168,0.075-3.412,0.075V390.647z M353.419,376.44
							c1.106,0.096,2.241,0.177,3.412,0.246v10.828c-1.011-0.007-2.153-0.034-3.412-0.089V376.44z M353.419,366.22
							c1.113,0.13,2.255,0.239,3.412,0.328v7.619c-1.018-0.062-2.16-0.143-3.412-0.253V366.22z M353.419,356.048
							c1.106,0.15,2.241,0.287,3.412,0.403v6.677c-1.018-0.123-2.16-0.273-3.412-0.451V356.048z M353.419,345.439
							c1.12,0.191,2.255,0.369,3.412,0.519v7.584c-1.018-0.123-2.16-0.273-3.412-0.464V345.439z M353.419,335.8
							c1.106,0.239,2.248,0.464,3.412,0.683v6.827c-1.018-0.171-2.168-0.382-3.412-0.621V335.8z M353.419,326.14
							c1.106,0.287,2.241,0.567,3.412,0.833v6.813c-1.018-0.212-2.16-0.457-3.412-0.758V326.14z M353.419,310.315
							c1.106,0.321,2.248,0.628,3.412,0.915v12.896c-1.018-0.239-2.16-0.519-3.412-0.846V310.315z M348.553,414.528
							c1.193,0.027,2.335,0.034,3.412,0.034v7.837c-1.157,0.027-2.292,0.034-3.412,0.034V414.528z M348.553,403.468
							c1.106,0.048,2.248,0.068,3.412,0.075v8.267c-1.069,0.014-2.212,0.007-3.412-0.027V403.468z M348.553,390.395
							c1.106,0.089,2.24,0.157,3.412,0.205v9.455c-1.077-0.007-2.219-0.041-3.412-0.095V390.395z M348.553,375.908
							c1.098,0.143,2.233,0.273,3.412,0.396v11.039c-1.077-0.068-2.212-0.157-3.412-0.28V375.908z M348.553,365.558
							c1.113,0.178,2.248,0.341,3.412,0.492v7.715c-1.077-0.109-2.219-0.246-3.412-0.416V365.558z M348.553,355.263
							c1.098,0.212,2.24,0.403,3.412,0.573v6.622c-1.077-0.171-2.219-0.355-3.412-0.573V355.263z M348.553,344.491
							c1.113,0.246,2.248,0.478,3.412,0.696v7.66c-1.077-0.184-2.219-0.396-3.412-0.642V344.491z M348.553,334.619
							c1.106,0.294,2.24,0.58,3.412,0.853v6.916c-1.084-0.218-2.226-0.471-3.412-0.744V334.619z M348.553,324.781
							c1.098,0.335,2.233,0.655,3.412,0.976v6.923c-1.084-0.266-2.226-0.567-3.412-0.901V324.781z M348.553,308.813
							c1.106,0.369,2.24,0.731,3.412,1.079v12.999c-1.077-0.294-2.219-0.621-3.412-0.976V308.813z M343.686,414.357
							c1.171,0.062,2.313,0.102,3.412,0.137v7.933c-1.164-0.014-2.299-0.041-3.412-0.075V414.357z M343.686,403.154
							c1.098,0.095,2.233,0.184,3.412,0.246v8.329c-1.098-0.041-2.241-0.109-3.412-0.205V403.154z M343.686,389.869
							c1.098,0.15,2.233,0.287,3.412,0.396v9.612c-1.106-0.068-2.248-0.164-3.412-0.293V389.869z M343.686,375.15
							c1.091,0.198,2.226,0.382,3.412,0.553v11.196c-1.098-0.13-2.241-0.28-3.412-0.464V375.15z M343.686,364.644
							c1.098,0.232,2.241,0.457,3.412,0.662v7.831c-1.106-0.171-2.241-0.369-3.412-0.594V364.644z M343.686,354.233
							c1.091,0.259,2.226,0.512,3.412,0.751v6.636c-1.106-0.212-2.248-0.45-3.412-0.703V354.233z M343.686,343.289
							c1.106,0.301,2.241,0.594,3.412,0.867v7.742c-1.106-0.239-2.248-0.505-3.412-0.806V343.289z M343.686,333.192
							c1.098,0.355,2.233,0.696,3.412,1.024v7.073c-1.106-0.266-2.248-0.566-3.412-0.888V333.192z M343.686,323.211
							c1.091,0.375,2.226,0.751,3.412,1.126v7.031c-1.106-0.321-2.248-0.676-3.412-1.051V323.211z M343.686,307.052
							c1.098,0.423,2.233,0.846,3.412,1.263v13.155c-1.106-0.341-2.248-0.717-3.412-1.113V307.052z M338.819,414.029
							c1.157,0.096,2.292,0.178,3.412,0.246v8.022c-1.178-0.055-2.313-0.116-3.412-0.178V414.029z M338.819,402.581
							c1.084,0.157,2.226,0.3,3.412,0.43v8.383c-1.113-0.109-2.255-0.246-3.412-0.41V402.581z M338.819,389.05
							c1.084,0.218,2.226,0.423,3.412,0.608v9.756c-1.12-0.137-2.262-0.307-3.412-0.512V389.05z M338.819,374.119
							c1.077,0.259,2.211,0.512,3.412,0.751v11.319c-1.113-0.198-2.255-0.416-3.412-0.676V374.119z M338.819,363.496
							c1.091,0.287,2.226,0.567,3.412,0.826v7.919c-1.12-0.232-2.262-0.498-3.412-0.799V363.496z M338.819,352.908
							c1.077,0.328,2.211,0.649,3.412,0.963v6.711c-1.12-0.259-2.262-0.539-3.412-0.853V352.908z M338.819,341.849
							c1.091,0.348,2.226,0.696,3.412,1.038v7.817c-1.12-0.307-2.262-0.642-3.412-1.01V341.849z M338.819,331.506
							c1.084,0.403,2.219,0.812,3.412,1.208v7.277c-1.128-0.328-2.27-0.676-3.412-1.051V331.506z M338.819,321.395
							c1.077,0.43,2.211,0.867,3.412,1.297v7.148c-1.12-0.382-2.262-0.792-3.412-1.229V321.395z M338.819,305.01
							c1.084,0.492,2.219,0.976,3.412,1.461v13.374c-1.128-0.396-2.262-0.819-3.412-1.277V305.01z M333.952,425.198
							c1.106,0.102,2.248,0.184,3.412,0.266v4.977h-3.412V425.198z M333.952,413.517c1.142,0.143,2.284,0.273,3.412,0.376v8.124
							c-1.2-0.089-2.335-0.184-3.412-0.294V413.517z M333.952,401.727c1.062,0.219,2.204,0.43,3.412,0.628v8.411
							c-1.12-0.178-2.262-0.382-3.412-0.621V401.727z M333.952,387.91c1.062,0.287,2.204,0.567,3.412,0.833v9.879
							c-1.135-0.218-2.277-0.485-3.412-0.785V387.91z M333.952,372.768c1.055,0.335,2.19,0.662,3.412,0.983v11.435
							c-1.12-0.273-2.262-0.573-3.412-0.908V372.768z M333.952,362.104c1.069,0.335,2.211,0.676,3.412,1.004v7.946
							c-1.135-0.314-2.277-0.655-3.412-1.038V362.104z M333.952,351.242c1.055,0.403,2.19,0.805,3.412,1.201v6.888
							c-1.135-0.321-2.277-0.662-3.412-1.038V351.242z M333.952,340.148c1.069,0.403,2.204,0.812,3.412,1.215v7.851
							c-1.135-0.382-2.27-0.799-3.412-1.249V340.148z M333.952,329.519c1.062,0.471,2.197,0.942,3.412,1.427v7.503
							c-1.142-0.396-2.284-0.812-3.412-1.256V329.519z M333.952,319.292c1.055,0.492,2.19,0.997,3.412,1.509v7.25
							c-1.135-0.444-2.277-0.922-3.412-1.427V319.292z M333.952,302.689c1.062,0.539,2.197,1.099,3.412,1.666v13.633
							c-1.135-0.464-2.277-0.956-3.412-1.475V302.689z M329.086,424.659c1.069,0.15,2.219,0.287,3.412,0.403v5.38h-3.412V424.659z
							 M329.086,412.794c1.135,0.198,2.27,0.375,3.412,0.533v8.261c-1.251-0.13-2.393-0.266-3.412-0.396V412.794z M329.086,400.574
							c1.011,0.273,2.146,0.56,3.412,0.846v8.411c-1.135-0.259-2.27-0.553-3.412-0.881V400.574z M329.086,386.414
							c1.004,0.348,2.146,0.724,3.412,1.086v9.926c-1.149-0.335-2.292-0.71-3.412-1.14V386.414z M329.086,371.013
							c0.997,0.41,2.131,0.847,3.412,1.277v11.551c-1.135-0.355-2.27-0.744-3.412-1.167V371.013z M329.086,360.459
							c1.011,0.376,2.153,0.778,3.412,1.188v7.871c-1.142-0.417-2.284-0.86-3.412-1.345V360.459z M329.086,349.167
							c0.997,0.478,2.131,0.983,3.412,1.509v7.134c-1.157-0.396-2.292-0.826-3.412-1.283V349.167z M329.086,338.176
							c1.011,0.444,2.153,0.922,3.412,1.413v7.783c-1.142-0.478-2.284-0.997-3.412-1.55V338.176z M329.086,327.205
							c1.004,0.519,2.146,1.078,3.412,1.659v7.735c-1.157-0.485-2.299-0.997-3.412-1.543V327.205z M329.086,316.828
							c0.997,0.553,2.131,1.147,3.412,1.775v7.359c-1.149-0.533-2.292-1.099-3.412-1.7V316.828z M329.086,300
							c1.004,0.601,2.146,1.242,3.412,1.925v13.913c-1.149-0.546-2.292-1.126-3.412-1.734V300z M323.601,423.498
							c1.084,0.362,2.459,0.669,4.03,0.928v6.015h-4.03V423.498z M323.601,411.647c1.324,0.328,2.67,0.621,4.03,0.874V421
							c-2.561-0.355-4.03-0.635-4.03-0.635V411.647z M323.601,398.764c0,0,1.411,0.608,4.03,1.386v8.37
							c-1.346-0.417-2.692-0.888-4.03-1.406V398.764z M323.601,384.121c0,0,1.397,0.758,4.03,1.755v9.824
							c-1.389-0.58-2.735-1.242-4.03-1.993V384.121z M323.601,368.234c0,0,1.295,0.915,4.03,2.151v11.722
							c-1.353-0.533-2.699-1.126-4.03-1.775V368.234z M323.601,358.212c0,0,1.44,0.703,4.03,1.7v7.612
							c-1.375-0.642-2.721-1.345-4.03-2.11V358.212z M323.601,346.061c0,0,1.331,0.997,4.03,2.383v7.482
							c-1.389-0.601-2.743-1.249-4.03-1.946V346.061z M323.601,335.547c0,0,1.44,0.806,4.03,1.987v7.551
							c-1.375-0.717-2.721-1.495-4.03-2.335V335.547z M323.601,324.03c0,0,1.397,0.97,4.03,2.403v7.885
							c-1.411-0.737-2.764-1.522-4.03-2.369V324.03z M323.601,313.373c0,0,1.317,1.045,4.03,2.628v7.469
							c-1.382-0.771-2.728-1.591-4.03-2.465V313.373z M323.601,296.381c0,0,1.382,1.086,4.03,2.738v14.173
							c-1.389-0.792-2.743-1.625-4.03-2.512V296.381z"/>
					</g>
					<g>
						
							<linearGradient id="SVGID_00000168817839414448196600000018361776003203652008_" gradientUnits="userSpaceOnUse" x1="456.2798" y1="300.2871" x2="372.9138" y2="459.2034">
							<stop  offset="0" style="stop-color:#8161C5"/>
							<stop  offset="0.5861" style="stop-color:#61B2A3"/>
							<stop  offset="1" style="stop-color:#EEC000"/>
						</linearGradient>
						<path style="fill:url(#SVGID_00000168817839414448196600000018361776003203652008_);" d="M391.413,410.562
							c0,0-33.845-1.914-58.711,13.387l20.382,11.101h76.648l20.382-11.101C425.248,408.649,391.413,410.562,391.413,410.562z
							 M343.864,428.448l-6.495-3.537h108.077l-6.494,3.537H343.864z"/>
					</g>
				</g>
			</g>
			<g>
				<g>
					
						<linearGradient id="SVGID_00000105423557353745668980000009263047682607716783_" gradientUnits="userSpaceOnUse" x1="240.0009" y1="449.5423" x2="194.9206" y2="272.2766">
						<stop  offset="0" style="stop-color:#8161C5"/>
						<stop  offset="0.4876" style="stop-color:#E00000"/>
						<stop  offset="0.9839" style="stop-color:#EEC000"/>
					</linearGradient>
					<polygon style="fill:url(#SVGID_00000105423557353745668980000009263047682607716783_);" points="224.669,298.655 
						218.962,465.428 226.708,465.428 226.708,298.655 					"/>
					
						<linearGradient id="SVGID_00000112606064065649813170000003213220586108853937_" gradientUnits="userSpaceOnUse" x1="253.16" y1="445.9765" x2="208.1004" y2="268.7925">
						<stop  offset="0" style="stop-color:#8161C5"/>
						<stop  offset="0.4876" style="stop-color:#E00000"/>
						<stop  offset="0.9839" style="stop-color:#EEC000"/>
					</linearGradient>
					<polygon style="fill:url(#SVGID_00000112606064065649813170000003213220586108853937_);" points="237.92,298.655 
						243.628,465.428 235.881,465.428 235.881,298.655 					"/>
					
						<linearGradient id="SVGID_00000116941189006568662680000010149100803337647744_" gradientUnits="userSpaceOnUse" x1="246.7743" y1="447.7202" x2="201.6995" y2="270.4763">
						<stop  offset="0" style="stop-color:#8161C5"/>
						<stop  offset="0.4876" style="stop-color:#E00000"/>
						<stop  offset="0.9839" style="stop-color:#EEC000"/>
					</linearGradient>
					<polygon style="fill:url(#SVGID_00000116941189006568662680000010149100803337647744_);" points="228.339,465.428 
						234.251,465.428 231.804,298.655 230.785,298.655 					"/>
				</g>
				
					<linearGradient id="SVGID_00000041975839473925825040000004876421079717991047_" gradientUnits="userSpaceOnUse" x1="267.4707" y1="437.5186" x2="223.8168" y2="265.8619">
					<stop  offset="0" style="stop-color:#8161C5"/>
					<stop  offset="0.4876" style="stop-color:#E00000"/>
					<stop  offset="0.9839" style="stop-color:#EEC000"/>
				</linearGradient>
				<path style="fill:url(#SVGID_00000041975839473925825040000004876421079717991047_);" d="M242.955,297.525h-23.322
					c-1.216,0-2.201-0.986-2.201-2.201v-0.115c0-1.216,0.986-2.201,2.201-2.201h23.322c1.216,0,2.201,0.986,2.201,2.201v0.115
					C245.157,296.54,244.171,297.525,242.955,297.525z"/>
				
					<linearGradient id="SVGID_00000081642179256111192350000013860640153086744249_" gradientUnits="userSpaceOnUse" x1="269.9794" y1="438.923" x2="225.6629" y2="264.6608">
					<stop  offset="0" style="stop-color:#8161C5"/>
					<stop  offset="0.4876" style="stop-color:#E00000"/>
					<stop  offset="0.9839" style="stop-color:#EEC000"/>
				</linearGradient>
				<path style="fill:url(#SVGID_00000081642179256111192350000013860640153086744249_);" d="M243.867,286.8h-25.147
					c0.603-2.033,1.777-3.855,3.351-5.301c2.365-2.184,5.626-3.531,9.222-3.531C237.295,277.968,242.35,281.71,243.867,286.8z"/>
				
					<linearGradient id="SVGID_00000027593230250244060200000015957723309675910046_" gradientUnits="userSpaceOnUse" x1="268.4253" y1="436.4358" x2="224.9623" y2="265.5299">
					<stop  offset="0" style="stop-color:#8161C5"/>
					<stop  offset="0.4876" style="stop-color:#E00000"/>
					<stop  offset="0.9839" style="stop-color:#EEC000"/>
				</linearGradient>
				<path style="fill:url(#SVGID_00000027593230250244060200000015957723309675910046_);" d="M244.34,290.015v1.694h-26.093v-1.694
					c0-0.361,0.016-0.715,0.049-1.069h25.995C244.323,289.3,244.34,289.653,244.34,290.015z"/>
				
					<linearGradient id="SVGID_00000021804324943708829140000010102088651618840193_" gradientUnits="userSpaceOnUse" x1="288.074" y1="437.0595" x2="243.0179" y2="259.8891">
					<stop  offset="0" style="stop-color:#8161C5"/>
					<stop  offset="0.4876" style="stop-color:#E00000"/>
					<stop  offset="0.9839" style="stop-color:#EEC000"/>
				</linearGradient>
				<path style="fill:url(#SVGID_00000021804324943708829140000010102088651618840193_);" d="M234.372,235.387h-0.121v-30.82h-1.835
					v-26.946l-1.121-3.576l-1.121,3.576v26.946h-1.835v30.82h-0.121c-0.637,0-1.153,0.477-1.153,1.064v1.159
					c0,0.588,0.516,1.065,1.153,1.065h6.154c0.637,0,1.153-0.477,1.153-1.065v-1.159
					C235.525,235.864,235.008,235.387,234.372,235.387z"/>
				
					<linearGradient id="SVGID_00000083078975148321741460000017484683974348068785_" gradientUnits="userSpaceOnUse" x1="276.5797" y1="439.556" x2="231.6343" y2="262.8211">
					<stop  offset="0" style="stop-color:#8161C5"/>
					<stop  offset="0.4876" style="stop-color:#E00000"/>
					<stop  offset="0.9839" style="stop-color:#EEC000"/>
				</linearGradient>
				<path style="fill:url(#SVGID_00000083078975148321741460000017484683974348068785_);" d="M235.066,272.028v-32.102h-7.543
					v32.102c-1.005,0.906-1.631,2.169-1.631,3.568v1.035h10.804v-1.035C236.697,274.197,236.071,272.934,235.066,272.028z"/>
			</g>
			<g>
				
					<linearGradient id="SVGID_00000060722856348015677800000017302024360674901169_" gradientUnits="userSpaceOnUse" x1="688.6555" y1="317.8165" x2="620.5952" y2="491.6133">
					<stop  offset="0" style="stop-color:#E16E1C"/>
					<stop  offset="0.3051" style="stop-color:#49B5AA"/>
					<stop  offset="0.6296" style="stop-color:#EF4400"/>
					<stop  offset="1" style="stop-color:#E1659C"/>
				</linearGradient>
				
					<rect x="613.807" y="463.265" style="fill:url(#SVGID_00000060722856348015677800000017302024360674901169_);" width="34.933" height="2.163"/>
				
					<linearGradient id="SVGID_00000160177595507867684600000015734297470204463013_" gradientUnits="userSpaceOnUse" x1="612.5341" y1="282.4083" x2="542.9824" y2="460.0135">
					<stop  offset="0" style="stop-color:#E16E1C"/>
					<stop  offset="0.3051" style="stop-color:#49B5AA"/>
					<stop  offset="0.6296" style="stop-color:#EF4400"/>
					<stop  offset="1" style="stop-color:#E1659C"/>
				</linearGradient>
				<polygon style="fill:url(#SVGID_00000160177595507867684600000015734297470204463013_);" points="552.02,410.13 548.06,422.569 
					568.143,422.569 568.143,412.564 555.697,412.564 555.697,410.13 				"/>
				
					<linearGradient id="SVGID_00000075858274670646669910000017098685508455874688_" gradientUnits="userSpaceOnUse" x1="621.0991" y1="283.8731" x2="550.6052" y2="463.8846">
					<stop  offset="0" style="stop-color:#E16E1C"/>
					<stop  offset="0.3051" style="stop-color:#49B5AA"/>
					<stop  offset="0.6296" style="stop-color:#EF4400"/>
					<stop  offset="1" style="stop-color:#E1659C"/>
				</linearGradient>
				<polygon style="fill:url(#SVGID_00000075858274670646669910000017098685508455874688_);" points="548.06,424.056 
					548.06,461.642 544.666,461.642 544.666,465.428 568.143,465.428 568.143,424.056 				"/>
				
					<linearGradient id="SVGID_00000141417787429723295530000010364944170942861470_" gradientUnits="userSpaceOnUse" x1="639.1379" y1="290.9578" x2="568.549" y2="471.212">
					<stop  offset="0" style="stop-color:#E16E1C"/>
					<stop  offset="0.3051" style="stop-color:#49B5AA"/>
					<stop  offset="0.6296" style="stop-color:#EF4400"/>
					<stop  offset="1" style="stop-color:#E1659C"/>
				</linearGradient>
				<polygon style="fill:url(#SVGID_00000141417787429723295530000010364944170942861470_);" points="605.48,374.031 
					605.48,427.301 580.306,427.301 580.306,390.796 591.337,390.796 591.337,384.036 				"/>
				
					<linearGradient id="SVGID_00000011715152706908973620000017843714183215488695_" gradientUnits="userSpaceOnUse" x1="628.6188" y1="287.4484" x2="558.5687" y2="466.3264">
					<stop  offset="0" style="stop-color:#E16E1C"/>
					<stop  offset="0.3051" style="stop-color:#49B5AA"/>
					<stop  offset="0.6296" style="stop-color:#EF4400"/>
					<stop  offset="1" style="stop-color:#E1659C"/>
				</linearGradient>
				<polygon style="fill:url(#SVGID_00000011715152706908973620000017843714183215488695_);" points="580.306,386.114 
					580.306,388.818 588.226,388.818 588.226,383.139 605.48,371.241 605.48,366.103 589.64,377.461 585.114,377.461 
					585.114,386.114 				"/>
				
					<linearGradient id="SVGID_00000174591474310273577690000001731025052766192002_" gradientUnits="userSpaceOnUse" x1="651.9042" y1="296.8921" x2="581.538" y2="476.5776">
					<stop  offset="0" style="stop-color:#E16E1C"/>
					<stop  offset="0.3051" style="stop-color:#49B5AA"/>
					<stop  offset="0.6296" style="stop-color:#EF4400"/>
					<stop  offset="1" style="stop-color:#E1659C"/>
				</linearGradient>
				<path style="fill:url(#SVGID_00000174591474310273577690000001731025052766192002_);" d="M597.279,459.48h8.203v5.947h-25.177
					v-35.695h25.177c0,0-4.245,1.222-7.643,7.574h-3.391v6.352h2.83V459.48z"/>
				
					<linearGradient id="SVGID_00000121968857171042945760000003504627551223075242_" gradientUnits="userSpaceOnUse" x1="620.4966" y1="283.1459" x2="549.6863" y2="463.9653">
					<stop  offset="0" style="stop-color:#E16E1C"/>
					<stop  offset="0.3051" style="stop-color:#49B5AA"/>
					<stop  offset="0.6296" style="stop-color:#EF4400"/>
					<stop  offset="1" style="stop-color:#E1659C"/>
				</linearGradient>
				<polygon style="fill:url(#SVGID_00000121968857171042945760000003504627551223075242_);" points="618.538,284.977 
					605.668,284.977 605.668,287.681 606.941,287.681 606.941,327.431 617.266,327.431 617.266,287.681 618.538,287.681 				"/>
				
					<linearGradient id="SVGID_00000160166888984496052400000015003464653199221147_" gradientUnits="userSpaceOnUse" x1="605.7795" y1="277.1277" x2="534.7436" y2="458.5233">
					<stop  offset="0" style="stop-color:#E16E1C"/>
					<stop  offset="0.3051" style="stop-color:#49B5AA"/>
					<stop  offset="0.6296" style="stop-color:#EF4400"/>
					<stop  offset="1" style="stop-color:#E1659C"/>
				</linearGradient>
				<polygon style="fill:url(#SVGID_00000160166888984496052400000015003464653199221147_);" points="618.538,269.091 
					617.902,269.091 617.902,253.272 617.266,253.272 617.266,238.67 615.78,238.67 612.103,223.527 608.426,238.67 606.941,238.67 
					606.941,253.272 606.305,253.272 606.305,269.091 605.668,269.091 605.668,271.795 606.305,271.795 606.305,283.625 
					617.902,283.625 617.902,271.795 618.538,271.795 				"/>
				
					<linearGradient id="SVGID_00000161622958587574532060000016100796429033200280_" gradientUnits="userSpaceOnUse" x1="631.535" y1="287.9028" x2="561.0452" y2="467.9041">
					<stop  offset="0" style="stop-color:#E16E1C"/>
					<stop  offset="0.3051" style="stop-color:#49B5AA"/>
					<stop  offset="0.6296" style="stop-color:#EF4400"/>
					<stop  offset="1" style="stop-color:#E1659C"/>
				</linearGradient>
				<polygon style="fill:url(#SVGID_00000161622958587574532060000016100796429033200280_);" points="618.538,329.008 
					605.668,329.008 605.668,331.712 606.941,331.712 606.941,349.289 617.266,349.289 617.266,331.712 618.538,331.712 				"/>
				
					<linearGradient id="SVGID_00000093874870240383208050000013059099927309565099_" gradientUnits="userSpaceOnUse" x1="641.579" y1="291.7969" x2="570.8303" y2="472.459">
					<stop  offset="0" style="stop-color:#E16E1C"/>
					<stop  offset="0.3051" style="stop-color:#49B5AA"/>
					<stop  offset="0.6296" style="stop-color:#EF4400"/>
					<stop  offset="1" style="stop-color:#E1659C"/>
				</linearGradient>
				<polygon style="fill:url(#SVGID_00000093874870240383208050000013059099927309565099_);" points="618.538,350.911 
					605.668,350.911 605.668,353.615 606.941,353.615 606.941,386.47 617.266,386.47 617.266,353.615 618.538,353.615 				"/>
				<g>
					
						<linearGradient id="SVGID_00000090994070858359551910000002853351200607973808_" gradientUnits="userSpaceOnUse" x1="620.8391" y1="282.6599" x2="549.8292" y2="463.989">
						<stop  offset="0" style="stop-color:#E16E1C"/>
						<stop  offset="0.3051" style="stop-color:#49B5AA"/>
						<stop  offset="0.6296" style="stop-color:#EF4400"/>
						<stop  offset="1" style="stop-color:#E1659C"/>
					</linearGradient>
					
						<rect x="571.207" y="377.704" style="fill:url(#SVGID_00000090994070858359551910000002853351200607973808_);" width="5.657" height="48.944"/>
					
						<linearGradient id="SVGID_00000051376833349090936280000008305723045789941143_" gradientUnits="userSpaceOnUse" x1="637.1855" y1="289.4333" x2="566.2751" y2="470.5082">
						<stop  offset="0" style="stop-color:#E16E1C"/>
						<stop  offset="0.3051" style="stop-color:#49B5AA"/>
						<stop  offset="0.6296" style="stop-color:#EF4400"/>
						<stop  offset="1" style="stop-color:#E1659C"/>
					</linearGradient>
					
						<rect x="571.207" y="435.954" style="fill:url(#SVGID_00000051376833349090936280000008305723045789941143_);" width="5.657" height="29.474"/>
					
						<linearGradient id="SVGID_00000113353742544043678410000006137376314435623867_" gradientUnits="userSpaceOnUse" x1="630.0596" y1="288.2552" x2="559.8654" y2="467.5014">
						<stop  offset="0" style="stop-color:#E16E1C"/>
						<stop  offset="0.3051" style="stop-color:#49B5AA"/>
						<stop  offset="0.6296" style="stop-color:#EF4400"/>
						<stop  offset="1" style="stop-color:#E1659C"/>
					</linearGradient>
					<polygon style="fill:url(#SVGID_00000113353742544043678410000006137376314435623867_);" points="571.207,434.413 
						571.207,428.219 576.864,428.219 576.864,434.413 					"/>
					
						<linearGradient id="SVGID_00000139264147305433105770000015251472331587628688_" gradientUnits="userSpaceOnUse" x1="611.0084" y1="279.1655" x2="540.2951" y2="459.7373">
						<stop  offset="0" style="stop-color:#E16E1C"/>
						<stop  offset="0.3051" style="stop-color:#49B5AA"/>
						<stop  offset="0.6296" style="stop-color:#EF4400"/>
						<stop  offset="1" style="stop-color:#E1659C"/>
					</linearGradient>
					<polygon style="fill:url(#SVGID_00000139264147305433105770000015251472331587628688_);" points="574.036,368.059 
						571.207,371.175 571.207,375.981 576.864,375.981 576.864,371.175 					"/>
				</g>
				
					<linearGradient id="SVGID_00000130608058088563854710000004445795855058513051_" gradientUnits="userSpaceOnUse" x1="653.4411" y1="296.5265" x2="582.6167" y2="477.3819">
					<stop  offset="0" style="stop-color:#E16E1C"/>
					<stop  offset="0.3051" style="stop-color:#49B5AA"/>
					<stop  offset="0.6296" style="stop-color:#EF4400"/>
					<stop  offset="1" style="stop-color:#E1659C"/>
				</linearGradient>
				<polygon style="fill:url(#SVGID_00000130608058088563854710000004445795855058513051_);" points="617.266,416.349 
					606.941,427.301 606.941,387.821 617.266,387.821 				"/>
				<g>
					
						<linearGradient id="SVGID_00000034062780088371734090000008693918983461813658_" gradientUnits="userSpaceOnUse" x1="659.6423" y1="298.8359" x2="588.7665" y2="479.8224">
						<stop  offset="0" style="stop-color:#E16E1C"/>
						<stop  offset="0.3051" style="stop-color:#49B5AA"/>
						<stop  offset="0.6296" style="stop-color:#EF4400"/>
						<stop  offset="1" style="stop-color:#E1659C"/>
					</linearGradient>
					<path style="fill:url(#SVGID_00000034062780088371734090000008693918983461813658_);" d="M605.48,458.048h-5.857v-16.495
						h-3.112v-2.411h3.211c0.407-1.068,2.28-5.539,5.61-7.066l0.296,0.59c-3.453,1.583-5.32,6.853-5.339,6.906l-0.078,0.223h-3.016
						v1.104h3.112v16.495h5.174V458.048z"/>
				</g>
				
					<linearGradient id="SVGID_00000062174285143545729710000003969368811664592773_" gradientUnits="userSpaceOnUse" x1="666.4476" y1="301.9484" x2="595.6735" y2="482.6757">
					<stop  offset="0" style="stop-color:#E16E1C"/>
					<stop  offset="0.3051" style="stop-color:#49B5AA"/>
					<stop  offset="0.6296" style="stop-color:#EF4400"/>
					<stop  offset="1" style="stop-color:#E1659C"/>
				</linearGradient>
				<polygon style="fill:url(#SVGID_00000062174285143545729710000003969368811664592773_);" points="619.057,418.202 
					607.46,430.52 607.46,465.428 611.066,465.428 611.066,441.227 609.369,439.266 609.369,432.371 621.811,418.202 				"/>
				
					<linearGradient id="SVGID_00000157297705585330629980000018154154101433215167_" gradientUnits="userSpaceOnUse" x1="738.3871" y1="332.791" x2="668.4609" y2="511.3527">
					<stop  offset="0" style="stop-color:#E16E1C"/>
					<stop  offset="0.3051" style="stop-color:#49B5AA"/>
					<stop  offset="0.6296" style="stop-color:#EF4400"/>
					<stop  offset="1" style="stop-color:#E1659C"/>
				</linearGradient>
				<polygon style="fill:url(#SVGID_00000157297705585330629980000018154154101433215167_);" points="711.27,410.13 715.23,422.569 
					695.147,422.569 695.147,412.564 707.593,412.564 707.593,410.13 				"/>
				
					<linearGradient id="SVGID_00000135657361618697810110000003394175959995224215_" gradientUnits="userSpaceOnUse" x1="749.3004" y1="336.4326" x2="678.7246" y2="516.653">
					<stop  offset="0" style="stop-color:#E16E1C"/>
					<stop  offset="0.3051" style="stop-color:#49B5AA"/>
					<stop  offset="0.6296" style="stop-color:#EF4400"/>
					<stop  offset="1" style="stop-color:#E1659C"/>
				</linearGradient>
				<polygon style="fill:url(#SVGID_00000135657361618697810110000003394175959995224215_);" points="715.23,424.056 
					715.23,461.642 718.624,461.642 718.624,465.428 695.147,465.428 695.147,424.056 				"/>
				
					<linearGradient id="SVGID_00000101078514899621522500000009173869882901422735_" gradientUnits="userSpaceOnUse" x1="703.3926" y1="316.4098" x2="632.2198" y2="498.1548">
					<stop  offset="0" style="stop-color:#E16E1C"/>
					<stop  offset="0.3051" style="stop-color:#49B5AA"/>
					<stop  offset="0.6296" style="stop-color:#EF4400"/>
					<stop  offset="1" style="stop-color:#E1659C"/>
				</linearGradient>
				<polygon style="fill:url(#SVGID_00000101078514899621522500000009173869882901422735_);" points="657.81,374.031 
					657.81,427.301 682.984,427.301 682.984,390.796 671.953,390.796 671.953,384.036 				"/>
				
					<linearGradient id="SVGID_00000177445391272407099580000013304555478487584403_" gradientUnits="userSpaceOnUse" x1="696.0399" y1="311.9804" x2="623.2339" y2="497.896">
					<stop  offset="0" style="stop-color:#E16E1C"/>
					<stop  offset="0.3051" style="stop-color:#49B5AA"/>
					<stop  offset="0.6296" style="stop-color:#EF4400"/>
					<stop  offset="1" style="stop-color:#E1659C"/>
				</linearGradient>
				<polygon style="fill:url(#SVGID_00000177445391272407099580000013304555478487584403_);" points="682.984,386.114 
					682.984,388.818 675.064,388.818 675.064,383.139 657.81,371.241 657.81,366.103 673.65,377.461 678.176,377.461 
					678.176,386.114 				"/>
				
					<linearGradient id="SVGID_00000149359461450625724200000002271685251404171664_" gradientUnits="userSpaceOnUse" x1="718.6785" y1="324.2868" x2="648.3122" y2="503.9723">
					<stop  offset="0" style="stop-color:#E16E1C"/>
					<stop  offset="0.3051" style="stop-color:#49B5AA"/>
					<stop  offset="0.6296" style="stop-color:#EF4400"/>
					<stop  offset="1" style="stop-color:#E1659C"/>
				</linearGradient>
				<path style="fill:url(#SVGID_00000149359461450625724200000002271685251404171664_);" d="M666.011,459.48h-8.203v5.947h25.177
					v-35.695h-25.177c0,0,4.245,1.222,7.642,7.574h3.391v6.352h-2.83V459.48z"/>
				
					<linearGradient id="SVGID_00000064322821215756003570000001906837965385206420_" gradientUnits="userSpaceOnUse" x1="654.1359" y1="297.0478" x2="583.3256" y2="477.8672">
					<stop  offset="0" style="stop-color:#E16E1C"/>
					<stop  offset="0.3051" style="stop-color:#49B5AA"/>
					<stop  offset="0.6296" style="stop-color:#EF4400"/>
					<stop  offset="1" style="stop-color:#E1659C"/>
				</linearGradient>
				<polygon style="fill:url(#SVGID_00000064322821215756003570000001906837965385206420_);" points="657.622,284.977 
					644.752,284.977 644.752,287.681 646.025,287.681 646.025,327.431 656.349,327.431 656.349,287.681 657.622,287.681 				"/>
				
					<linearGradient id="SVGID_00000118364289699323590090000012159911206469347510_" gradientUnits="userSpaceOnUse" x1="639.4017" y1="291.0738" x2="568.3658" y2="472.4692">
					<stop  offset="0" style="stop-color:#E16E1C"/>
					<stop  offset="0.3051" style="stop-color:#49B5AA"/>
					<stop  offset="0.6296" style="stop-color:#EF4400"/>
					<stop  offset="1" style="stop-color:#E1659C"/>
				</linearGradient>
				<polygon style="fill:url(#SVGID_00000118364289699323590090000012159911206469347510_);" points="644.752,269.091 
					645.388,269.091 645.388,253.272 646.025,253.272 646.025,238.67 647.51,238.67 651.187,223.527 654.864,238.67 656.349,238.67 
					656.349,253.272 656.985,253.272 656.985,269.091 657.622,269.091 657.622,271.795 656.985,271.795 656.985,283.625 
					645.388,283.625 645.388,271.795 644.752,271.795 				"/>
				
					<linearGradient id="SVGID_00000085215487900759669820000008714859259647710136_" gradientUnits="userSpaceOnUse" x1="665.1989" y1="301.7419" x2="594.709" y2="481.7431">
					<stop  offset="0" style="stop-color:#E16E1C"/>
					<stop  offset="0.3051" style="stop-color:#49B5AA"/>
					<stop  offset="0.6296" style="stop-color:#EF4400"/>
					<stop  offset="1" style="stop-color:#E1659C"/>
				</linearGradient>
				<polygon style="fill:url(#SVGID_00000085215487900759669820000008714859259647710136_);" points="657.622,329.008 
					644.752,329.008 644.752,331.712 646.025,331.712 646.025,349.289 656.349,349.289 656.349,331.712 657.622,331.712 				"/>
				
					<linearGradient id="SVGID_00000142163590090211940110000001892323659396584117_" gradientUnits="userSpaceOnUse" x1="675.2229" y1="305.6868" x2="604.4742" y2="486.3488">
					<stop  offset="0" style="stop-color:#E16E1C"/>
					<stop  offset="0.3051" style="stop-color:#49B5AA"/>
					<stop  offset="0.6296" style="stop-color:#EF4400"/>
					<stop  offset="1" style="stop-color:#E1659C"/>
				</linearGradient>
				<polygon style="fill:url(#SVGID_00000142163590090211940110000001892323659396584117_);" points="657.622,350.911 
					644.752,350.911 644.752,353.615 646.025,353.615 646.025,386.47 656.349,386.47 656.349,353.615 657.622,353.615 				"/>
				<g>
					
						<linearGradient id="SVGID_00000023259273877646745710000003388667321987930765_" gradientUnits="userSpaceOnUse" x1="719.963" y1="323.7585" x2="648.9531" y2="505.0874">
						<stop  offset="0" style="stop-color:#E16E1C"/>
						<stop  offset="0.3051" style="stop-color:#49B5AA"/>
						<stop  offset="0.6296" style="stop-color:#EF4400"/>
						<stop  offset="1" style="stop-color:#E1659C"/>
					</linearGradient>
					
						<rect x="686.426" y="377.704" style="fill:url(#SVGID_00000023259273877646745710000003388667321987930765_);" width="5.657" height="48.944"/>
					
						<linearGradient id="SVGID_00000163754525424616335300000010296293547760901779_" gradientUnits="userSpaceOnUse" x1="736.3319" y1="330.4744" x2="665.4216" y2="511.5492">
						<stop  offset="0" style="stop-color:#E16E1C"/>
						<stop  offset="0.3051" style="stop-color:#49B5AA"/>
						<stop  offset="0.6296" style="stop-color:#EF4400"/>
						<stop  offset="1" style="stop-color:#E1659C"/>
					</linearGradient>
					
						<rect x="686.426" y="435.954" style="fill:url(#SVGID_00000163754525424616335300000010296293547760901779_);" width="5.657" height="29.474"/>
					
						<linearGradient id="SVGID_00000037671396040719333400000006015543574869148570_" gradientUnits="userSpaceOnUse" x1="729.3682" y1="328.8822" x2="659.1743" y2="508.1276">
						<stop  offset="0" style="stop-color:#E16E1C"/>
						<stop  offset="0.3051" style="stop-color:#49B5AA"/>
						<stop  offset="0.6296" style="stop-color:#EF4400"/>
						<stop  offset="1" style="stop-color:#E1659C"/>
					</linearGradient>
					<polygon style="fill:url(#SVGID_00000037671396040719333400000006015543574869148570_);" points="692.083,434.413 
						692.083,428.219 686.426,428.219 686.426,434.413 					"/>
					
						<linearGradient id="SVGID_00000150822485251140403880000004899721812850721215_" gradientUnits="userSpaceOnUse" x1="710.1996" y1="320.0925" x2="639.4863" y2="500.6643">
						<stop  offset="0" style="stop-color:#E16E1C"/>
						<stop  offset="0.3051" style="stop-color:#49B5AA"/>
						<stop  offset="0.6296" style="stop-color:#EF4400"/>
						<stop  offset="1" style="stop-color:#E1659C"/>
					</linearGradient>
					<polygon style="fill:url(#SVGID_00000150822485251140403880000004899721812850721215_);" points="689.254,368.059 
						692.083,371.175 692.083,375.981 686.426,375.981 686.426,371.175 					"/>
				</g>
				
					<linearGradient id="SVGID_00000090286401720901242690000018121682513182397315_" gradientUnits="userSpaceOnUse" x1="689.0879" y1="310.7775" x2="617.915" y2="492.5226">
					<stop  offset="0" style="stop-color:#E16E1C"/>
					<stop  offset="0.3051" style="stop-color:#49B5AA"/>
					<stop  offset="0.6296" style="stop-color:#EF4400"/>
					<stop  offset="1" style="stop-color:#E1659C"/>
				</linearGradient>
				<polygon style="fill:url(#SVGID_00000090286401720901242690000018121682513182397315_);" points="646.025,416.349 
					656.349,427.301 656.349,387.821 646.025,387.821 				"/>
				<g>
					
						<linearGradient id="SVGID_00000088091132754410261570000013904700795267868074_" gradientUnits="userSpaceOnUse" x1="710.1226" y1="319.0632" x2="638.9578" y2="500.788">
						<stop  offset="0" style="stop-color:#E16E1C"/>
						<stop  offset="0.3051" style="stop-color:#49B5AA"/>
						<stop  offset="0.6296" style="stop-color:#EF4400"/>
						<stop  offset="1" style="stop-color:#E1659C"/>
					</linearGradient>
					<path style="fill:url(#SVGID_00000088091132754410261570000013904700795267868074_);" d="M663.668,458.048h-5.858v-0.654h5.174
						V440.9h3.112v-1.104h-3.016l-0.078-0.223c-0.018-0.053-1.89-5.326-5.339-6.906l0.296-0.59c3.33,1.527,5.203,5.998,5.61,7.066
						h3.211v2.411h-3.112V458.048z"/>
				</g>
				
					<linearGradient id="SVGID_00000160869978515505548180000006051154401217316787_" gradientUnits="userSpaceOnUse" x1="698.7689" y1="313.8451" x2="627.3276" y2="496.2758">
					<stop  offset="0" style="stop-color:#E16E1C"/>
					<stop  offset="0.3051" style="stop-color:#49B5AA"/>
					<stop  offset="0.6296" style="stop-color:#EF4400"/>
					<stop  offset="1" style="stop-color:#E1659C"/>
				</linearGradient>
				<polygon style="fill:url(#SVGID_00000160869978515505548180000006051154401217316787_);" points="644.233,418.202 
					655.83,430.52 655.83,465.428 652.224,465.428 652.224,441.227 653.921,439.266 653.921,432.371 641.479,418.202 				"/>
				<g>
					
						<linearGradient id="SVGID_00000004520350812349141350000017797828321665794230_" gradientUnits="userSpaceOnUse" x1="643.2681" y1="292.2305" x2="572.2172" y2="473.6646">
						<stop  offset="0" style="stop-color:#E16E1C"/>
						<stop  offset="0.3051" style="stop-color:#49B5AA"/>
						<stop  offset="0.6296" style="stop-color:#EF4400"/>
						<stop  offset="1" style="stop-color:#E1659C"/>
					</linearGradient>
					<polygon style="fill:url(#SVGID_00000004520350812349141350000017797828321665794230_);" points="623.333,331.712 
						621.643,334.806 621.643,351.467 625.022,351.467 625.022,334.806 					"/>
					
						<linearGradient id="SVGID_00000132089049642803203540000005643682115810639239_" gradientUnits="userSpaceOnUse" x1="648.035" y1="294.2085" x2="576.9841" y2="475.6421">
						<stop  offset="0" style="stop-color:#E16E1C"/>
						<stop  offset="0.3051" style="stop-color:#49B5AA"/>
						<stop  offset="0.6296" style="stop-color:#EF4400"/>
						<stop  offset="1" style="stop-color:#E1659C"/>
					</linearGradient>
					<polygon style="fill:url(#SVGID_00000132089049642803203540000005643682115810639239_);" points="628.874,331.712 
						627.185,334.806 627.185,351.467 630.564,351.467 630.564,334.806 					"/>
					
						<linearGradient id="SVGID_00000180357589569718330080000010280849198453539758_" gradientUnits="userSpaceOnUse" x1="652.8019" y1="296.1861" x2="581.751" y2="477.6198">
						<stop  offset="0" style="stop-color:#E16E1C"/>
						<stop  offset="0.3051" style="stop-color:#49B5AA"/>
						<stop  offset="0.6296" style="stop-color:#EF4400"/>
						<stop  offset="1" style="stop-color:#E1659C"/>
					</linearGradient>
					<polygon style="fill:url(#SVGID_00000180357589569718330080000010280849198453539758_);" points="634.416,331.712 
						632.726,334.806 632.726,351.467 636.105,351.467 636.105,334.806 					"/>
					
						<linearGradient id="SVGID_00000115493328507258448450000000994361878592314241_" gradientUnits="userSpaceOnUse" x1="657.5688" y1="298.1638" x2="586.5178" y2="479.5978">
						<stop  offset="0" style="stop-color:#E16E1C"/>
						<stop  offset="0.3051" style="stop-color:#49B5AA"/>
						<stop  offset="0.6296" style="stop-color:#EF4400"/>
						<stop  offset="1" style="stop-color:#E1659C"/>
					</linearGradient>
					<polygon style="fill:url(#SVGID_00000115493328507258448450000000994361878592314241_);" points="639.957,331.712 
						638.268,334.806 638.268,351.467 641.647,351.467 641.647,334.806 					"/>
				</g>
				
					<linearGradient id="SVGID_00000151506391710806700950000005319604172172816524_" gradientUnits="userSpaceOnUse" x1="668.4198" y1="302.5475" x2="597.575" y2="483.4551">
					<stop  offset="0" style="stop-color:#E16E1C"/>
					<stop  offset="0.3051" style="stop-color:#49B5AA"/>
					<stop  offset="0.6296" style="stop-color:#EF4400"/>
					<stop  offset="1" style="stop-color:#E1659C"/>
				</linearGradient>
				<path style="fill:url(#SVGID_00000151506391710806700950000005319604172172816524_);" d="M631.643,369.367l-11.457,7.339v39.505
					h4.594l6.576-6.078l6.419,6.078h5.325v-39.505L631.643,369.367z M625.341,409.055h-3.527v-29.911
					c0-0.164,0.027-0.327,0.075-0.484c0.253-0.804,0.971-1.203,1.688-1.203c0.725,0,1.435,0.399,1.688,1.203
					c0.055,0.157,0.075,0.32,0.075,0.484V409.055z M630.721,409.055h-3.528v-33.225c0-0.163,0.027-0.327,0.075-0.484
					c0.253-0.797,0.971-1.202,1.688-1.202c0.718,0,1.436,0.405,1.688,1.202c0.048,0.157,0.075,0.32,0.075,0.484V409.055z
					 M636.094,409.055h-3.52v-33.225c0-0.163,0.02-0.327,0.075-0.484c0.253-0.797,0.964-1.202,1.688-1.202
					c0.718,0,1.435,0.405,1.688,1.202c0.048,0.157,0.068,0.32,0.068,0.484V409.055z M641.474,409.055h-3.527v-29.911
					c0-0.164,0.027-0.327,0.075-0.484c0.253-0.804,0.971-1.203,1.688-1.203c0.718,0,1.436,0.399,1.688,1.203
					c0.048,0.157,0.075,0.32,0.075,0.484V409.055z"/>
				
					<linearGradient id="SVGID_00000091702904923535801900000000254924188398197663_" gradientUnits="userSpaceOnUse" x1="623.8868" y1="284.2824" x2="554.1201" y2="462.4368">
					<stop  offset="0" style="stop-color:#E16E1C"/>
					<stop  offset="0.3051" style="stop-color:#49B5AA"/>
					<stop  offset="0.6296" style="stop-color:#EF4400"/>
					<stop  offset="1" style="stop-color:#E1659C"/>
				</linearGradient>
				<polygon style="fill:url(#SVGID_00000091702904923535801900000000254924188398197663_);" points="620.26,257.756 
					643.03,257.756 643.03,271.186 638.316,261.181 631.574,273.62 626.653,261.181 620.26,272.268 				"/>
				
					<linearGradient id="SVGID_00000122699978865331032730000006342377698549889170_" gradientUnits="userSpaceOnUse" x1="636.626" y1="289.7272" x2="565.8427" y2="470.4776">
					<stop  offset="0" style="stop-color:#E16E1C"/>
					<stop  offset="0.3051" style="stop-color:#49B5AA"/>
					<stop  offset="0.6296" style="stop-color:#EF4400"/>
					<stop  offset="1" style="stop-color:#E1659C"/>
				</linearGradient>
				<path style="fill:url(#SVGID_00000122699978865331032730000006342377698549889170_);" d="M638.315,266.407l-6.74,12.443
					l-4.922-12.443l-6.392,11.09v49.889h22.77v-50.974L638.315,266.407z M626.845,325.765h-4.539v-31.787
					c0-3.947,0.622-7.875,1.846-11.652l0.424-1.314l0.424,1.314c1.224,3.777,1.846,7.705,1.846,11.652V325.765z M627.351,275.942
					c0.253,0.176,0.417,0.464,0.417,0.784c0,0.536-0.451,0.967-1.012,0.967c-0.458,0-0.834-0.288-0.964-0.68
					c-0.13,0.392-0.513,0.68-0.964,0.68c-0.561,0-1.019-0.431-1.019-0.967c0-0.268,0.116-0.503,0.294-0.68
					c-0.506-0.059-0.896-0.464-0.896-0.961c0-0.536,0.458-0.967,1.019-0.967c0.212,0,0.41,0.059,0.567,0.17
					c-0.041-0.111-0.068-0.229-0.068-0.353c0-0.536,0.451-0.974,1.012-0.974c0.56,0,1.018,0.438,1.018,0.974
					c0,0.072-0.014,0.137-0.027,0.209c0.143-0.078,0.314-0.131,0.492-0.131c0.561,0,1.019,0.438,1.019,0.974
					C628.239,275.478,627.85,275.883,627.351,275.942z M633.913,325.765h-4.532v-31.787c0-3.947,0.615-7.875,1.839-11.652
					l0.424-1.314l0.431,1.314c1.217,3.777,1.839,7.705,1.839,11.652V325.765z M635.656,276.726c0-0.268,0.109-0.503,0.287-0.68
					c-0.499-0.059-0.889-0.464-0.889-0.961c0-0.536,0.451-0.967,1.012-0.967c0.212,0,0.41,0.059,0.574,0.17
					c-0.048-0.111-0.075-0.229-0.075-0.353c0-0.536,0.458-0.974,1.018-0.974c0.561,0,1.012,0.438,1.012,0.974
					c0,0.072-0.007,0.137-0.027,0.209c0.15-0.078,0.315-0.131,0.499-0.131c0.56,0,1.012,0.438,1.012,0.974
					c0,0.49-0.39,0.895-0.889,0.954c0.253,0.176,0.417,0.464,0.417,0.784c0,0.536-0.451,0.967-1.012,0.967
					c-0.451,0-0.834-0.288-0.964-0.68c-0.13,0.392-0.506,0.68-0.964,0.68C636.107,277.693,635.656,277.262,635.656,276.726z
					 M640.981,325.765h-4.532v-31.787c0-3.947,0.622-7.875,1.839-11.652l0.431-1.314l0.424,1.314
					c1.217,3.777,1.839,7.705,1.839,11.652V325.765z"/>
				
					<linearGradient id="SVGID_00000062163244212508500670000003171338734349481104_" gradientUnits="userSpaceOnUse" x1="618.6085" y1="282.6083" x2="547.5168" y2="464.1462">
					<stop  offset="0" style="stop-color:#E16E1C"/>
					<stop  offset="0.3051" style="stop-color:#49B5AA"/>
					<stop  offset="0.6296" style="stop-color:#EF4400"/>
					<stop  offset="1" style="stop-color:#E1659C"/>
				</linearGradient>
				<polygon style="fill:url(#SVGID_00000062163244212508500670000003171338734349481104_);" points="631.645,238.056 
					629.307,249.549 629.307,253.605 630.539,253.605 630.539,257.756 632.751,257.756 632.751,253.605 633.983,253.605 
					633.983,249.549 				"/>
				
					<linearGradient id="SVGID_00000103228639794514106890000007359866139794055349_" gradientUnits="userSpaceOnUse" x1="686.5546" y1="310.209" x2="615.8743" y2="490.6967">
					<stop  offset="0" style="stop-color:#E16E1C"/>
					<stop  offset="0.3051" style="stop-color:#49B5AA"/>
					<stop  offset="0.6296" style="stop-color:#EF4400"/>
					<stop  offset="1" style="stop-color:#E1659C"/>
				</linearGradient>
				<path style="fill:url(#SVGID_00000103228639794514106890000007359866139794055349_);" d="M631.643,423.034l-14.957,16.129
					v22.533h4.717v-11.743c0-2.621,2.222-4.751,4.963-4.751c1.374,0,2.618,0.529,3.514,1.392c0.902,0.863,1.456,2.052,1.456,3.359
					v11.743h0.615v-11.743c0-2.621,2.229-4.751,4.97-4.751c1.374,0,2.618,0.529,3.514,1.392c0.902,0.863,1.456,2.052,1.456,3.359
					v11.743h4.71v-22.533L631.643,423.034z M636.538,437.548h-1.962c-0.342,0-0.643,0.196-0.773,0.497
					c0,0.007-0.007,0.007-0.007,0.013c-0.13,0.301-0.062,0.641,0.178,0.876l1.388,1.327l-0.697,0.667l-1.388-1.327
					c-0.239-0.235-0.602-0.294-0.916-0.17h-0.007c-0.314,0.124-0.526,0.418-0.526,0.745v1.876h-0.984v-1.876
					c0-0.327-0.212-0.621-0.526-0.745h-0.007c-0.314-0.124-0.677-0.065-0.916,0.17l-1.388,1.327l-0.697-0.667l1.388-1.327
					c0.239-0.235,0.308-0.575,0.178-0.876c-0.007-0.007-0.007-0.007-0.007-0.013c-0.13-0.301-0.431-0.497-0.772-0.497h-1.969V436.6
					h1.969c0.342,0,0.642-0.196,0.772-0.497c0-0.007,0-0.007,0.007-0.013c0.13-0.301,0.061-0.647-0.178-0.876l-1.388-1.327
					l0.697-0.667l1.388,1.327c0.239,0.229,0.602,0.294,0.916,0.17c0,0,0.007,0,0.007-0.007c0.314-0.118,0.526-0.412,0.526-0.738
					v-1.876h0.984v1.876c0,0.327,0.212,0.621,0.526,0.738c0,0.007,0.007,0.007,0.007,0.007c0.314,0.124,0.677,0.059,0.916-0.17
					l1.388-1.327l0.697,0.667l-1.388,1.327c-0.239,0.229-0.308,0.575-0.178,0.876c0,0.007,0.007,0.007,0.007,0.013
					c0.13,0.301,0.431,0.497,0.773,0.497h1.962V437.548z"/>
				
					<linearGradient id="SVGID_00000108309774782529792020000012986548532628032648_" gradientUnits="userSpaceOnUse" x1="681.7605" y1="308.6316" x2="611.3092" y2="488.5342">
					<stop  offset="0" style="stop-color:#E16E1C"/>
					<stop  offset="0.3051" style="stop-color:#49B5AA"/>
					<stop  offset="0.6296" style="stop-color:#EF4400"/>
					<stop  offset="1" style="stop-color:#E1659C"/>
				</linearGradient>
				<path style="fill:url(#SVGID_00000108309774782529792020000012986548532628032648_);" d="M631.356,410.133l-17.931,23.651v5.633
					l18.218-19.651l18.225,19.651v-5.633L631.356,410.133z M632.771,416.891c0.253,0.176,0.417,0.458,0.417,0.778
					c0,0.536-0.451,0.974-1.012,0.974c-0.458,0-0.834-0.288-0.964-0.686c-0.13,0.399-0.513,0.686-0.964,0.686
					c-0.561,0-1.019-0.438-1.019-0.974c0-0.261,0.116-0.503,0.294-0.673c-0.506-0.065-0.896-0.464-0.896-0.961
					c0-0.536,0.458-0.974,1.018-0.974c0.212,0,0.41,0.065,0.567,0.17c-0.041-0.111-0.068-0.229-0.068-0.353
					c0-0.536,0.451-0.967,1.012-0.967c0.56,0,1.018,0.431,1.018,0.967c0,0.072-0.014,0.144-0.027,0.209
					c0.144-0.078,0.315-0.124,0.492-0.124c0.561,0,1.019,0.431,1.019,0.967C633.66,416.427,633.271,416.825,632.771,416.891z"/>
				
					<linearGradient id="SVGID_00000149344007279183964060000011164886354237574277_" gradientUnits="userSpaceOnUse" x1="645.83" y1="294.8474" x2="577.1595" y2="470.2028">
					<stop  offset="0" style="stop-color:#E16E1C"/>
					<stop  offset="0.3051" style="stop-color:#49B5AA"/>
					<stop  offset="0.6296" style="stop-color:#EF4400"/>
					<stop  offset="1" style="stop-color:#E1659C"/>
				</linearGradient>
				<polygon style="fill:url(#SVGID_00000149344007279183964060000011164886354237574277_);" points="621.173,329.211 
					642.117,329.211 642.117,332.929 639.957,329.751 637.784,332.929 634.416,329.751 631.645,332.929 628.874,329.751 
					626.289,332.929 623.333,329.751 621.173,332.929 				"/>
				
					<linearGradient id="SVGID_00000170243020192589281500000013170924052417160126_" gradientUnits="userSpaceOnUse" x1="657.3327" y1="298.9398" x2="587.2121" y2="477.998">
					<stop  offset="0" style="stop-color:#E16E1C"/>
					<stop  offset="0.3051" style="stop-color:#49B5AA"/>
					<stop  offset="0.6296" style="stop-color:#EF4400"/>
					<stop  offset="1" style="stop-color:#E1659C"/>
				</linearGradient>
				<polygon style="fill:url(#SVGID_00000170243020192589281500000013170924052417160126_);" points="640.988,355.039 
					640.988,353.615 622.302,353.615 622.302,355.039 620.38,355.039 620.38,374.031 631.936,366.257 642.91,374.031 
					642.91,355.039 				"/>
				
					<linearGradient id="SVGID_00000098212756744427882960000002345062715852945799_" gradientUnits="userSpaceOnUse" x1="671.4847" y1="303.6537" x2="600.4837" y2="484.9601">
					<stop  offset="0" style="stop-color:#E16E1C"/>
					<stop  offset="0.3051" style="stop-color:#49B5AA"/>
					<stop  offset="0.6296" style="stop-color:#EF4400"/>
					<stop  offset="1" style="stop-color:#E1659C"/>
				</linearGradient>
				<polygon style="fill:url(#SVGID_00000098212756744427882960000002345062715852945799_);" points="633.211,405.707 
					631.678,405.707 631.678,404.24 630.869,404.24 630.869,405.707 629.335,405.707 629.335,406.481 630.869,406.481 
					630.869,410.882 631.678,410.882 631.678,406.481 633.211,406.481 				"/>
			</g>
		</g>
		
			<linearGradient id="SVGID_00000078043073993988477950000015206311448418308031_" gradientUnits="userSpaceOnUse" x1="108.9779" y1="3399.0974" x2="678.2158" y2="3543.7659" gradientTransform="matrix(1 0 0 -1.9207 0 7126.8389)">
			<stop  offset="0" style="stop-color:#8161C5"/>
			<stop  offset="0.5861" style="stop-color:#61B2A3"/>
			<stop  offset="1" style="stop-color:#EEC000"/>
		</linearGradient>
		
			<rect x="-19.333" y="465.476" style="clip-path:url(#SVGID_00000020370403926597526980000012489601620429125566_);fill:url(#SVGID_00000078043073993988477950000015206311448418308031_);" width="788.667" height="5.725"/>
	</g>
</g>
</svg>
